<?xml version="1.0" encoding="UTF-8" standalone="no"?><svg xmlns="http://www.w3.org/2000/svg" xmlns:xlink="http://www.w3.org/1999/xlink" contentScriptType="application/ecmascript" contentStyleType="text/css" height="290px" preserveAspectRatio="none" style="width:722px;height:290px;" version="1.1" viewBox="0 0 722 290" width="722px" zoomAndPan="magnify"><defs><filter height="300%" id="fe3tcqdajasbl" width="300%" x="-1" y="-1"><feGaussianBlur result="blurOut" stdDeviation="2.0"/><feColorMatrix in="blurOut" result="blurOut2" type="matrix" values="0 0 0 0 0 0 0 0 0 0 0 0 0 0 0 0 0 0 .4 0"/><feOffset dx="4.0" dy="4.0" in="blurOut2" result="blurOut3"/><feBlend in="SourceGraphic" in2="blurOut3" mode="normal"/></filter></defs><g><!--MD5=[7dbafa13093bfeec5c443f1c20288c44]
entity ICamera--><ellipse cx="41" cy="38" fill="#FEFECE" filter="url(#fe3tcqdajasbl)" rx="8" ry="8" style="stroke: #A80036; stroke-width: 2.0;"/><text fill="#000000" font-family="sans-serif" font-size="14" lengthAdjust="spacingAndGlyphs" textLength="53" x="14.5" y="69.5332">ICamera</text><!--MD5=[c8f729b8e352a0860913e8756c4779b6]
entity Camera--><rect fill="#FEFECE" filter="url(#fe3tcqdajasbl)" height="37.6094" style="stroke: #A80036; stroke-width: 1.5;" width="70" x="6" y="128"/><rect fill="#FEFECE" height="5" style="stroke: #A80036; stroke-width: 1.5;" width="10" x="1" y="133"/><rect fill="#FEFECE" height="5" style="stroke: #A80036; stroke-width: 1.5;" width="10" x="1" y="155.6094"/><text fill="#000000" font-family="sans-serif" font-size="14" lengthAdjust="spacingAndGlyphs" textLength="50" x="16" y="152.5332">Camera</text><!--MD5=[7cea0504e8cf45094c2de341d7a384ca]
entity Commands--><rect fill="#FEFECE" filter="url(#fe3tcqdajasbl)" height="37.6094" style="stroke: #A80036; stroke-width: 1.5;" width="91" x="164.5" y="128"/><rect fill="#FEFECE" height="5" style="stroke: #A80036; stroke-width: 1.5;" width="10" x="159.5" y="133"/><rect fill="#FEFECE" height="5" style="stroke: #A80036; stroke-width: 1.5;" width="10" x="159.5" y="155.6094"/><text fill="#000000" font-family="sans-serif" font-size="14" lengthAdjust="spacingAndGlyphs" textLength="71" x="174.5" y="152.5332">Commands</text><!--MD5=[cf43aa1690dbdfe485164cd5a5ed55ad]
entity IConnector--><ellipse cx="120" cy="147" fill="#FEFECE" filter="url(#fe3tcqdajasbl)" rx="8" ry="8" style="stroke: #A80036; stroke-width: 2.0;"/><text fill="#000000" font-family="sans-serif" font-size="14" lengthAdjust="spacingAndGlyphs" textLength="69" x="85.5" y="178.5332">IConnector</text><!--MD5=[ebb7f8d2e3402ca85279694da6c794a0]
entity CommandChannel--><rect fill="#FEFECE" filter="url(#fe3tcqdajasbl)" height="37.6094" style="stroke: #A80036; stroke-width: 1.5;" width="137" x="290.5" y="128"/><rect fill="#FEFECE" height="5" style="stroke: #A80036; stroke-width: 1.5;" width="10" x="285.5" y="133"/><rect fill="#FEFECE" height="5" style="stroke: #A80036; stroke-width: 1.5;" width="10" x="285.5" y="155.6094"/><text fill="#000000" font-family="sans-serif" font-size="14" lengthAdjust="spacingAndGlyphs" textLength="117" x="300.5" y="152.5332">CommandChannel</text><!--MD5=[0f0b7ed167b21cd74acea32645837b15]
entity Connector--><rect fill="#FEFECE" filter="url(#fe3tcqdajasbl)" height="37.6094" style="stroke: #A80036; stroke-width: 1.5;" width="86" x="77" y="226"/><rect fill="#FEFECE" height="5" style="stroke: #A80036; stroke-width: 1.5;" width="10" x="72" y="231"/><rect fill="#FEFECE" height="5" style="stroke: #A80036; stroke-width: 1.5;" width="10" x="72" y="253.6094"/><text fill="#000000" font-family="sans-serif" font-size="14" lengthAdjust="spacingAndGlyphs" textLength="66" x="87" y="250.5332">Connector</text><!--MD5=[b320261c089a095cfc72cb2fdb9dd90a]
entity Socket--><ellipse cx="207" cy="245" fill="#FEFECE" filter="url(#fe3tcqdajasbl)" rx="8" ry="8" style="stroke: #A80036; stroke-width: 2.0;"/><text fill="#000000" font-family="sans-serif" font-size="14" lengthAdjust="spacingAndGlyphs" textLength="43" x="185.5" y="276.5332">Socket</text><!--MD5=[6d13d96e3214069def66a922d7b4b439]
entity Channel--><rect fill="#FEFECE" filter="url(#fe3tcqdajasbl)" height="37.6094" style="stroke: #A80036; stroke-width: 1.5;" width="73" x="322.5" y="19"/><rect fill="#FEFECE" height="5" style="stroke: #A80036; stroke-width: 1.5;" width="10" x="317.5" y="24"/><rect fill="#FEFECE" height="5" style="stroke: #A80036; stroke-width: 1.5;" width="10" x="317.5" y="46.6094"/><text fill="#000000" font-family="sans-serif" font-size="14" lengthAdjust="spacingAndGlyphs" textLength="53" x="332.5" y="43.5332">Channel</text><!--MD5=[6cef3292fe542509f6b5ce20bdfa8104]
entity DataChannel--><rect fill="#FEFECE" filter="url(#fe3tcqdajasbl)" height="37.6094" style="stroke: #A80036; stroke-width: 1.5;" width="103" x="608.5" y="128"/><rect fill="#FEFECE" height="5" style="stroke: #A80036; stroke-width: 1.5;" width="10" x="603.5" y="133"/><rect fill="#FEFECE" height="5" style="stroke: #A80036; stroke-width: 1.5;" width="10" x="603.5" y="155.6094"/><text fill="#000000" font-family="sans-serif" font-size="14" lengthAdjust="spacingAndGlyphs" textLength="83" x="618.5" y="152.5332">DataChannel</text><!--MD5=[cc2405e7e296075ece1f50bfedd72247]
entity ImageProvider--><rect fill="#FEFECE" filter="url(#fe3tcqdajasbl)" height="37.6094" style="stroke: #A80036; stroke-width: 1.5;" width="111" x="462.5" y="128"/><rect fill="#FEFECE" height="5" style="stroke: #A80036; stroke-width: 1.5;" width="10" x="457.5" y="133"/><rect fill="#FEFECE" height="5" style="stroke: #A80036; stroke-width: 1.5;" width="10" x="457.5" y="155.6094"/><text fill="#000000" font-family="sans-serif" font-size="14" lengthAdjust="spacingAndGlyphs" textLength="91" x="472.5" y="152.5332">ImageProvider</text><!--MD5=[10484e9fe2213f1bdca7510a825474d4]
reverse link ICamera to Camera--><path d="M41,67.24 C41,86.357 41,111.058 41,127.657 " fill="none" id="ICamera&lt;-Camera" style="stroke: #A80036; stroke-width: 1.0;"/><polygon fill="none" points="34.0001,67.042,41,47.042,48.0001,67.042,34.0001,67.042" style="stroke: #A80036; stroke-width: 1.0;"/><!--MD5=[92ef045c5e484347479f8a3077dbaaa2]
link Camera to Commands--><path d="M70.4004,120.2768 C70.4004,120.2768 96.4228,102.464 110.5,98 C135.434,90.094 161.923,104.376 181.296,119.524 " fill="none" id="Camera-Commands" style="stroke: #A80036; stroke-width: 1.0;"/><polygon fill="#A80036" points="191.272,127.894,186.9479,119.0452,187.4415,124.6804,181.8062,125.174,191.272,127.894" style="stroke: #A80036; stroke-width: 1.0;"/><line style="stroke: #A80036; stroke-width: 1.0;" x1="187.4415" x2="181.3125" y1="124.6804" y2="119.538"/><polygon fill="#FFFFFF" points="61.0467,127.794,68.2293,127.1533,70.4004,120.2768,63.2178,120.9175,61.0467,127.794" style="stroke: #A80036; stroke-width: 1.0;"/><!--MD5=[5d3f0c056c348b83fec6857f6b39d7c6]
link Camera to IConnector--><path d="M76.1797,147 C85.9945,147 95.8093,147 105.6241,147 " fill="none" id="Camera-&gt;IConnector" style="stroke: #A80036; stroke-width: 1.0; stroke-dasharray: 7.0,7.0;"/><polygon fill="#A80036" points="110.757,147,101.757,143,105.757,147,101.757,151,110.757,147" style="stroke: #A80036; stroke-width: 1.0;"/><!--MD5=[3723082646a0418a9b92e4c60cd9848d]
link Commands to CommandChannel--><path d="M267.689,147 C267.689,147 274.353,147 277.177,147 " fill="none" id="Commands-CommandChannel" style="stroke: #A80036; stroke-width: 1.0;"/><polygon fill="#A80036" points="290.395,147,281.395,143,285.395,147,281.395,151,290.395,147" style="stroke: #A80036; stroke-width: 1.0;"/><line style="stroke: #A80036; stroke-width: 1.0;" x1="285.395" x2="277.395" y1="147" y2="147"/><polygon fill="#FFFFFF" points="255.689,147,261.689,151,267.689,147,261.689,143,255.689,147" style="stroke: #A80036; stroke-width: 1.0;"/><!--MD5=[9861f4c5887bd9dbb2aabfcfda150400]
reverse link IConnector to Connector--><path d="M120,176.2997 C120,192.2915 120,211.8132 120,225.7773 " fill="none" id="IConnector&lt;-Connector" style="stroke: #A80036; stroke-width: 1.0;"/><polygon fill="none" points="113,176.1849,120,156.185,127,176.1849,113,176.1849" style="stroke: #A80036; stroke-width: 1.0;"/><!--MD5=[4c639ef696e8bc43c1bef75f47a6cbd6]
link Connector to Socket--><path d="M175.16,245 C175.16,245 181.962,245 184.742,245 " fill="none" id="Connector-Socket" style="stroke: #A80036; stroke-width: 1.0;"/><polygon fill="#A80036" points="197.753,245,188.753,241,192.753,245,188.753,249,197.753,245" style="stroke: #A80036; stroke-width: 1.0;"/><line style="stroke: #A80036; stroke-width: 1.0;" x1="192.753" x2="184.7525" y1="245" y2="244.9999"/><polygon fill="#FFFFFF" points="163.16,245,169.16,249,175.16,245,169.16,241,163.16,245" style="stroke: #A80036; stroke-width: 1.0;"/><!--MD5=[2d3eaa632ff811b039b3689794e48054]
link Channel to IConnector--><path d="M311.1443,56.097 C311.1443,56.097 200.935,99.042 147,128 C144.788,129.188 142.528,130.507 140.304,131.877 " fill="none" id="Channel-IConnector" style="stroke: #A80036; stroke-width: 1.0;"/><polygon fill="#A80036" points="129.224,139.214,138.9362,137.5792,133.3926,136.4531,134.5187,130.9094,129.224,139.214" style="stroke: #A80036; stroke-width: 1.0;"/><line style="stroke: #A80036; stroke-width: 1.0;" x1="133.3926" x2="140.0625" y1="136.4531" y2="132.0365"/><polygon fill="#FFFFFF" points="322.399,51.934,315.384,50.2639,311.1443,56.097,318.1593,57.7671,322.399,51.934" style="stroke: #A80036; stroke-width: 1.0;"/><!--MD5=[4f2a2e8dfb6b3b558b3dca6e866031f1]
reverse link Channel to CommandChannel--><path d="M359,77.412 C359,94.568 359,113.978 359,127.76 " fill="none" id="Channel&lt;-CommandChannel" style="stroke: #A80036; stroke-width: 1.0;"/><polygon fill="none" points="352,77.151,359,57.151,366,77.151,352,77.151" style="stroke: #A80036; stroke-width: 1.0;"/><!--MD5=[0c64de92ef63daa71b4472bf1f66074b]
reverse link Channel to DataChannel--><path d="M414.681,58.794 C470.341,78.58 555.193,108.743 609.102,127.907 " fill="none" id="Channel&lt;-DataChannel" style="stroke: #A80036; stroke-width: 1.0;"/><polygon fill="none" points="412.108,65.308,395.608,52.013,416.797,52.117,412.108,65.308" style="stroke: #A80036; stroke-width: 1.0;"/><!--MD5=[782e2aabb71b36d4f71ed9a22a0415e6]
link ImageProvider to DataChannel--><path d="M585.746,147 C585.746,147 592.408,147 595.233,147 " fill="none" id="ImageProvider-DataChannel" style="stroke: #A80036; stroke-width: 1.0;"/><polygon fill="#A80036" points="608.45,147,599.45,143,603.45,147,599.45,151,608.45,147" style="stroke: #A80036; stroke-width: 1.0;"/><line style="stroke: #A80036; stroke-width: 1.0;" x1="603.45" x2="595.45" y1="147" y2="147"/><polygon fill="#FFFFFF" points="573.746,147,579.746,151,585.746,147,579.746,143,573.746,147" style="stroke: #A80036; stroke-width: 1.0;"/><!--MD5=[12ff5eb6602044cd42968df8cf9408ca]
@startuml
ICamera <|- - [Camera]
[Camera] o-> [Commands]
[Camera] .> IConnector
[Commands] o-> [CommandChannel]
IConnector <|- - [Connector]
[Connector] o-> Socket
[Channel] o-> IConnector
[Channel] <|- - [CommandChannel]
[Channel] <|- - [DataChannel]
[ImageProvider] o-> [DataChannel]
@enduml

PlantUML version 1.2020.04(Thu Mar 19 11:16:49 CET 2020)
(GPL source distribution)
Java Runtime: Java(TM) SE Runtime Environment
JVM: Java HotSpot(TM) 64-Bit Server VM
Java Version: 1.8.0_231-b11
Operating System: Windows 10
Default Encoding: Cp1252
Language: de
Country: DE
--></g></svg>