<?xml version="1.0" encoding="UTF-8" standalone="no"?><svg xmlns="http://www.w3.org/2000/svg" xmlns:xlink="http://www.w3.org/1999/xlink" contentScriptType="application/ecmascript" contentStyleType="text/css" height="290px" preserveAspectRatio="none" style="width:515px;height:290px;" version="1.1" viewBox="0 0 515 290" width="515px" zoomAndPan="magnify"><defs><filter height="300%" id="f4df7mrjxka0j" width="300%" x="-1" y="-1"><feGaussianBlur result="blurOut" stdDeviation="2.0"/><feColorMatrix in="blurOut" result="blurOut2" type="matrix" values="0 0 0 0 0 0 0 0 0 0 0 0 0 0 0 0 0 0 .4 0"/><feOffset dx="4.0" dy="4.0" in="blurOut2" result="blurOut3"/><feBlend in="SourceGraphic" in2="blurOut3" mode="normal"/></filter></defs><g><!--MD5=[7dbafa13093bfeec5c443f1c20288c44]
entity ICamera--><ellipse cx="40" cy="38" fill="#FEFECE" filter="url(#f4df7mrjxka0j)" rx="8" ry="8" style="stroke: #A80036; stroke-width: 2.0;"/><text fill="#000000" font-family="sans-serif" font-size="14" lengthAdjust="spacingAndGlyphs" textLength="53" x="13.5" y="69.5332">ICamera</text><!--MD5=[c8f729b8e352a0860913e8756c4779b6]
entity Camera--><rect fill="#FEFECE" filter="url(#f4df7mrjxka0j)" height="37.6094" style="stroke: #A80036; stroke-width: 1.5;" width="70" x="64" y="128"/><rect fill="#FEFECE" height="5" style="stroke: #A80036; stroke-width: 1.5;" width="10" x="59" y="133"/><rect fill="#FEFECE" height="5" style="stroke: #A80036; stroke-width: 1.5;" width="10" x="59" y="155.6094"/><text fill="#000000" font-family="sans-serif" font-size="14" lengthAdjust="spacingAndGlyphs" textLength="50" x="74" y="152.5332">Camera</text><!--MD5=[7cea0504e8cf45094c2de341d7a384ca]
entity Commands--><rect fill="#FEFECE" filter="url(#f4df7mrjxka0j)" height="37.6094" style="stroke: #A80036; stroke-width: 1.5;" width="91" x="53.5" y="226"/><rect fill="#FEFECE" height="5" style="stroke: #A80036; stroke-width: 1.5;" width="10" x="48.5" y="231"/><rect fill="#FEFECE" height="5" style="stroke: #A80036; stroke-width: 1.5;" width="10" x="48.5" y="253.6094"/><text fill="#000000" font-family="sans-serif" font-size="14" lengthAdjust="spacingAndGlyphs" textLength="71" x="63.5" y="250.5332">Commands</text><!--MD5=[cf43aa1690dbdfe485164cd5a5ed55ad]
entity IConnector--><ellipse cx="358" cy="147" fill="#FEFECE" filter="url(#f4df7mrjxka0j)" rx="8" ry="8" style="stroke: #A80036; stroke-width: 2.0;"/><text fill="#000000" font-family="sans-serif" font-size="14" lengthAdjust="spacingAndGlyphs" textLength="69" x="323.5" y="178.5332">IConnector</text><!--MD5=[ebb7f8d2e3402ca85279694da6c794a0]
entity CommandChannel--><rect fill="#FEFECE" filter="url(#f4df7mrjxka0j)" height="37.6094" style="stroke: #A80036; stroke-width: 1.5;" width="137" x="179.5" y="226"/><rect fill="#FEFECE" height="5" style="stroke: #A80036; stroke-width: 1.5;" width="10" x="174.5" y="231"/><rect fill="#FEFECE" height="5" style="stroke: #A80036; stroke-width: 1.5;" width="10" x="174.5" y="253.6094"/><text fill="#000000" font-family="sans-serif" font-size="14" lengthAdjust="spacingAndGlyphs" textLength="117" x="189.5" y="250.5332">CommandChannel</text><!--MD5=[0f0b7ed167b21cd74acea32645837b15]
entity Connector--><rect fill="#FEFECE" filter="url(#f4df7mrjxka0j)" height="37.6094" style="stroke: #A80036; stroke-width: 1.5;" width="86" x="352" y="226"/><rect fill="#FEFECE" height="5" style="stroke: #A80036; stroke-width: 1.5;" width="10" x="347" y="231"/><rect fill="#FEFECE" height="5" style="stroke: #A80036; stroke-width: 1.5;" width="10" x="347" y="253.6094"/><text fill="#000000" font-family="sans-serif" font-size="14" lengthAdjust="spacingAndGlyphs" textLength="66" x="362" y="250.5332">Connector</text><!--MD5=[b320261c089a095cfc72cb2fdb9dd90a]
entity Socket--><ellipse cx="482" cy="245" fill="#FEFECE" filter="url(#f4df7mrjxka0j)" rx="8" ry="8" style="stroke: #A80036; stroke-width: 2.0;"/><text fill="#000000" font-family="sans-serif" font-size="14" lengthAdjust="spacingAndGlyphs" textLength="43" x="460.5" y="276.5332">Socket</text><!--MD5=[6d13d96e3214069def66a922d7b4b439]
entity Channel--><rect fill="#FEFECE" filter="url(#f4df7mrjxka0j)" height="37.6094" style="stroke: #A80036; stroke-width: 1.5;" width="73" x="240.5" y="128"/><rect fill="#FEFECE" height="5" style="stroke: #A80036; stroke-width: 1.5;" width="10" x="235.5" y="133"/><rect fill="#FEFECE" height="5" style="stroke: #A80036; stroke-width: 1.5;" width="10" x="235.5" y="155.6094"/><text fill="#000000" font-family="sans-serif" font-size="14" lengthAdjust="spacingAndGlyphs" textLength="53" x="250.5" y="152.5332">Channel</text><!--MD5=[6cef3292fe542509f6b5ce20bdfa8104]
entity DataChannel--><rect fill="#FEFECE" filter="url(#f4df7mrjxka0j)" height="37.6094" style="stroke: #A80036; stroke-width: 1.5;" width="103" x="255.5" y="19"/><rect fill="#FEFECE" height="5" style="stroke: #A80036; stroke-width: 1.5;" width="10" x="250.5" y="24"/><rect fill="#FEFECE" height="5" style="stroke: #A80036; stroke-width: 1.5;" width="10" x="250.5" y="46.6094"/><text fill="#000000" font-family="sans-serif" font-size="14" lengthAdjust="spacingAndGlyphs" textLength="83" x="265.5" y="43.5332">DataChannel</text><!--MD5=[cc2405e7e296075ece1f50bfedd72247]
entity ImageProvider--><rect fill="#FEFECE" filter="url(#f4df7mrjxka0j)" height="37.6094" style="stroke: #A80036; stroke-width: 1.5;" width="111" x="109.5" y="19"/><rect fill="#FEFECE" height="5" style="stroke: #A80036; stroke-width: 1.5;" width="10" x="104.5" y="24"/><rect fill="#FEFECE" height="5" style="stroke: #A80036; stroke-width: 1.5;" width="10" x="104.5" y="46.6094"/><text fill="#000000" font-family="sans-serif" font-size="14" lengthAdjust="spacingAndGlyphs" textLength="91" x="119.5" y="43.5332">ImageProvider</text><!--MD5=[10484e9fe2213f1bdca7510a825474d4]
reverse link ICamera to Camera--><path d="M54.185,64.725 C64.893,84.145 79.3263,110.321 88.8858,127.657 " fill="none" id="ICamera&lt;-Camera" style="stroke: #A80036; stroke-width: 1.0;"/><polygon fill="none" points="47.962,67.936,44.4346,47.042,60.2217,61.176,47.962,67.936" style="stroke: #A80036; stroke-width: 1.0;"/><!--MD5=[92ef045c5e484347479f8a3077dbaaa2]
link Camera to Commands--><path d="M99,178.0569 C99,178.0569 99,201.8577 99,212.5608 " fill="none" id="Camera-Commands" style="stroke: #A80036; stroke-width: 1.0;"/><polygon fill="#A80036" points="99,225.6977,103,216.6977,99,220.6977,95,216.6977,99,225.6977" style="stroke: #A80036; stroke-width: 1.0;"/><line style="stroke: #A80036; stroke-width: 1.0;" x1="99" x2="99.0001" y1="220.6977" y2="212.6977"/><polygon fill="#FFFFFF" points="99,166.0569,95,172.0569,99,178.0569,103,172.0569,99,166.0569" style="stroke: #A80036; stroke-width: 1.0;"/><!--MD5=[5d3f0c056c348b83fec6857f6b39d7c6]
link Camera to IConnector--><path d="M130.374,127.863 C173.248,104.342 251.849,70.709 313.5,98 C329.641,105.145 342.434,121.358 350.085,133.184 " fill="none" id="Camera-&gt;IConnector" style="stroke: #A80036; stroke-width: 1.0; stroke-dasharray: 7.0,7.0;"/><polygon fill="#A80036" points="352.856,137.63,351.4904,127.8763,350.2114,133.3866,344.701,132.1076,352.856,137.63" style="stroke: #A80036; stroke-width: 1.0;"/><!--MD5=[3723082646a0418a9b92e4c60cd9848d]
link Commands to CommandChannel--><path d="M156.689,245 C156.689,245 163.353,245 166.177,245 " fill="none" id="Commands-CommandChannel" style="stroke: #A80036; stroke-width: 1.0;"/><polygon fill="#A80036" points="179.395,245,170.395,241,174.395,245,170.395,249,179.395,245" style="stroke: #A80036; stroke-width: 1.0;"/><line style="stroke: #A80036; stroke-width: 1.0;" x1="174.395" x2="166.395" y1="245" y2="244.9999"/><polygon fill="#FFFFFF" points="144.689,245,150.689,249,156.689,245,150.689,241,144.689,245" style="stroke: #A80036; stroke-width: 1.0;"/><!--MD5=[9861f4c5887bd9dbb2aabfcfda150400]
reverse link IConnector to Connector--><path d="M368.37,174.9062 C374.629,191.1452 382.437,211.4049 387.977,225.7773 " fill="none" id="IConnector&lt;-Connector" style="stroke: #A80036; stroke-width: 1.0;"/><polygon fill="none" points="361.816,177.3642,361.155,156.185,374.879,172.3294,361.816,177.3642" style="stroke: #A80036; stroke-width: 1.0;"/><!--MD5=[4c639ef696e8bc43c1bef75f47a6cbd6]
link Connector to Socket--><path d="M450.16,245 C450.16,245 456.962,245 459.742,245 " fill="none" id="Connector-Socket" style="stroke: #A80036; stroke-width: 1.0;"/><polygon fill="#A80036" points="472.753,245,463.753,241,467.753,245,463.753,249,472.753,245" style="stroke: #A80036; stroke-width: 1.0;"/><line style="stroke: #A80036; stroke-width: 1.0;" x1="467.753" x2="459.7525" y1="245" y2="244.9999"/><polygon fill="#FFFFFF" points="438.16,245,444.16,249,450.16,245,444.16,241,438.16,245" style="stroke: #A80036; stroke-width: 1.0;"/><!--MD5=[2d3eaa632ff811b039b3689794e48054]
link Channel to IConnector--><path d="M325.703,147 C325.703,147 332.499,147 335.344,147 " fill="none" id="Channel-IConnector" style="stroke: #A80036; stroke-width: 1.0;"/><polygon fill="#A80036" points="348.656,147,339.656,143,343.656,147,339.656,151,348.656,147" style="stroke: #A80036; stroke-width: 1.0;"/><line style="stroke: #A80036; stroke-width: 1.0;" x1="343.656" x2="335.656" y1="147" y2="147"/><polygon fill="#FFFFFF" points="313.703,147,319.703,151,325.703,147,319.703,143,313.703,147" style="stroke: #A80036; stroke-width: 1.0;"/><!--MD5=[4f2a2e8dfb6b3b558b3dca6e866031f1]
reverse link Channel to CommandChannel--><path d="M265.686,185.454 C261.511,199.2732 256.966,214.3192 253.529,225.6977 " fill="none" id="Channel&lt;-CommandChannel" style="stroke: #A80036; stroke-width: 1.0;"/><polygon fill="none" points="259.061,183.1781,271.545,166.0569,272.463,187.2266,259.061,183.1781" style="stroke: #A80036; stroke-width: 1.0;"/><!--MD5=[c9f23381991f193bf246894ea0aa648c]
link DataChannel to Channel--><path d="M301.911,57.151 C297.989,71.139 292.431,90.964 287.559,108.338 " fill="none" id="DataChannel-&gt;Channel" style="stroke: #A80036; stroke-width: 1.0;"/><polygon fill="none" points="294.253,110.392,282.114,127.76,280.773,106.613,294.253,110.392" style="stroke: #A80036; stroke-width: 1.0;"/><!--MD5=[782e2aabb71b36d4f71ed9a22a0415e6]
link ImageProvider to DataChannel--><path d="M232.746,38 C232.746,38 239.408,38 242.233,38 " fill="none" id="ImageProvider-DataChannel" style="stroke: #A80036; stroke-width: 1.0;"/><polygon fill="#A80036" points="255.45,38,246.45,34,250.45,38,246.45,42,255.45,38" style="stroke: #A80036; stroke-width: 1.0;"/><line style="stroke: #A80036; stroke-width: 1.0;" x1="250.45" x2="242.45" y1="38" y2="38"/><polygon fill="#FFFFFF" points="220.746,38,226.746,42,232.746,38,226.746,34,220.746,38" style="stroke: #A80036; stroke-width: 1.0;"/><!--MD5=[0dc3a226d7bf533811b8a0f387006a61]
@startuml
ICamera <|- - [Camera]
[Camera] o-> [Commands]
[Camera] .> IConnector
[Commands] o-> [CommandChannel]
IConnector <|- - [Connector]
[Connector] o-> Socket
[Channel] o-> IConnector
[Channel] <|- - [CommandChannel]
[DataChannel] - -|> [Channel]
[ImageProvider] o-> [DataChannel]
@enduml

PlantUML version 1.2020.04(Thu Mar 19 11:16:49 CET 2020)
(GPL source distribution)
Java Runtime: Java(TM) SE Runtime Environment
JVM: Java HotSpot(TM) 64-Bit Server VM
Java Version: 1.8.0_231-b11
Operating System: Windows 10
Default Encoding: Cp1252
Language: de
Country: DE
--></g></svg>