<?xml version="1.0" encoding="UTF-8" standalone="no"?><svg xmlns="http://www.w3.org/2000/svg" xmlns:xlink="http://www.w3.org/1999/xlink" contentScriptType="application/ecmascript" contentStyleType="text/css" height="350px" preserveAspectRatio="none" style="width:345px;height:350px;" version="1.1" viewBox="0 0 345 350" width="345px" zoomAndPan="magnify"><defs><filter height="300%" id="f10sgc5k9fw8du" width="300%" x="-1" y="-1"><feGaussianBlur result="blurOut" stdDeviation="2.0"/><feColorMatrix in="blurOut" result="blurOut2" type="matrix" values="0 0 0 0 0 0 0 0 0 0 0 0 0 0 0 0 0 0 .4 0"/><feOffset dx="4.0" dy="4.0" in="blurOut2" result="blurOut3"/><feBlend in="SourceGraphic" in2="blurOut3" mode="normal"/></filter></defs><g><!--MD5=[7dbafa13093bfeec5c443f1c20288c44]
entity ICamera--><ellipse cx="41" cy="27" fill="#FEFECE" filter="url(#f10sgc5k9fw8du)" rx="8" ry="8" style="stroke: #A80036; stroke-width: 2.0;"/><text fill="#000000" font-family="sans-serif" font-size="14" lengthAdjust="spacingAndGlyphs" textLength="53" x="14.5" y="58.5332">ICamera</text><!--MD5=[c8f729b8e352a0860913e8756c4779b6]
entity Camera--><rect fill="#FEFECE" filter="url(#f10sgc5k9fw8du)" height="37.6094" style="stroke: #A80036; stroke-width: 1.5;" width="70" x="6" y="106"/><rect fill="#FEFECE" height="5" style="stroke: #A80036; stroke-width: 1.5;" width="10" x="1" y="111"/><rect fill="#FEFECE" height="5" style="stroke: #A80036; stroke-width: 1.5;" width="10" x="1" y="133.6094"/><text fill="#000000" font-family="sans-serif" font-size="14" lengthAdjust="spacingAndGlyphs" textLength="50" x="16" y="130.5332">Camera</text><!--MD5=[cf43aa1690dbdfe485164cd5a5ed55ad]
entity IConnector--><ellipse cx="136" cy="125" fill="#FEFECE" filter="url(#f10sgc5k9fw8du)" rx="8" ry="8" style="stroke: #A80036; stroke-width: 2.0;"/><text fill="#000000" font-family="sans-serif" font-size="14" lengthAdjust="spacingAndGlyphs" textLength="69" x="101.5" y="156.5332">IConnector</text><!--MD5=[7cea0504e8cf45094c2de341d7a384ca]
entity Commands--><rect fill="#FEFECE" filter="url(#f10sgc5k9fw8du)" height="37.6094" style="stroke: #A80036; stroke-width: 1.5;" width="91" x="42.5" y="302"/><rect fill="#FEFECE" height="5" style="stroke: #A80036; stroke-width: 1.5;" width="10" x="37.5" y="307"/><rect fill="#FEFECE" height="5" style="stroke: #A80036; stroke-width: 1.5;" width="10" x="37.5" y="329.6094"/><text fill="#000000" font-family="sans-serif" font-size="14" lengthAdjust="spacingAndGlyphs" textLength="71" x="52.5" y="326.5332">Commands</text><!--MD5=[ebb7f8d2e3402ca85279694da6c794a0]
entity CommandChannel--><rect fill="#FEFECE" filter="url(#f10sgc5k9fw8du)" height="37.6094" style="stroke: #A80036; stroke-width: 1.5;" width="137" x="192.5" y="302"/><rect fill="#FEFECE" height="5" style="stroke: #A80036; stroke-width: 1.5;" width="10" x="187.5" y="307"/><rect fill="#FEFECE" height="5" style="stroke: #A80036; stroke-width: 1.5;" width="10" x="187.5" y="329.6094"/><text fill="#000000" font-family="sans-serif" font-size="14" lengthAdjust="spacingAndGlyphs" textLength="117" x="202.5" y="326.5332">CommandChannel</text><!--MD5=[6d13d96e3214069def66a922d7b4b439]
entity Channel--><rect fill="#FEFECE" filter="url(#f10sgc5k9fw8du)" height="37.6094" style="stroke: #A80036; stroke-width: 1.5;" width="73" x="246.5" y="106"/><rect fill="#FEFECE" height="5" style="stroke: #A80036; stroke-width: 1.5;" width="10" x="241.5" y="111"/><rect fill="#FEFECE" height="5" style="stroke: #A80036; stroke-width: 1.5;" width="10" x="241.5" y="133.6094"/><text fill="#000000" font-family="sans-serif" font-size="14" lengthAdjust="spacingAndGlyphs" textLength="53" x="256.5" y="130.5332">Channel</text><!--MD5=[6cef3292fe542509f6b5ce20bdfa8104]
entity DataChannel--><rect fill="#FEFECE" filter="url(#f10sgc5k9fw8du)" height="37.6094" style="stroke: #A80036; stroke-width: 1.5;" width="103" x="231.5" y="8"/><rect fill="#FEFECE" height="5" style="stroke: #A80036; stroke-width: 1.5;" width="10" x="226.5" y="13"/><rect fill="#FEFECE" height="5" style="stroke: #A80036; stroke-width: 1.5;" width="10" x="226.5" y="35.6094"/><text fill="#000000" font-family="sans-serif" font-size="14" lengthAdjust="spacingAndGlyphs" textLength="83" x="241.5" y="32.5332">DataChannel</text><!--MD5=[0f0b7ed167b21cd74acea32645837b15]
entity Connector--><rect fill="#FEFECE" filter="url(#f10sgc5k9fw8du)" height="37.6094" style="stroke: #A80036; stroke-width: 1.5;" width="86" x="93" y="204"/><rect fill="#FEFECE" height="5" style="stroke: #A80036; stroke-width: 1.5;" width="10" x="88" y="209"/><rect fill="#FEFECE" height="5" style="stroke: #A80036; stroke-width: 1.5;" width="10" x="88" y="231.6094"/><text fill="#000000" font-family="sans-serif" font-size="14" lengthAdjust="spacingAndGlyphs" textLength="66" x="103" y="228.5332">Connector</text><!--MD5=[cc2405e7e296075ece1f50bfedd72247]
entity ImageProvider--><rect fill="#FEFECE" filter="url(#f10sgc5k9fw8du)" height="37.6094" style="stroke: #A80036; stroke-width: 1.5;" width="111" x="85.5" y="8"/><rect fill="#FEFECE" height="5" style="stroke: #A80036; stroke-width: 1.5;" width="10" x="80.5" y="13"/><rect fill="#FEFECE" height="5" style="stroke: #A80036; stroke-width: 1.5;" width="10" x="80.5" y="35.6094"/><text fill="#000000" font-family="sans-serif" font-size="14" lengthAdjust="spacingAndGlyphs" textLength="91" x="95.5" y="32.5332">ImageProvider</text><!--MD5=[b320261c089a095cfc72cb2fdb9dd90a]
entity Socket--><ellipse cx="223" cy="223" fill="#FEFECE" filter="url(#f10sgc5k9fw8du)" rx="8" ry="8" style="stroke: #A80036; stroke-width: 2.0;"/><text fill="#000000" font-family="sans-serif" font-size="14" lengthAdjust="spacingAndGlyphs" textLength="43" x="201.5" y="254.5332">Socket</text><!--MD5=[10484e9fe2213f1bdca7510a825474d4]
reverse link ICamera to Camera--><path d="M41,56.3 C41,72.292 41,91.813 41,105.777 " fill="none" id="ICamera&lt;-Camera" style="stroke: #A80036; stroke-width: 1.0;"/><polygon fill="none" points="34.0001,56.185,41,36.185,48.0001,56.185,34.0001,56.185" style="stroke: #A80036; stroke-width: 1.0;"/><!--MD5=[5d3f0c056c348b83fec6857f6b39d7c6]
link Camera to IConnector--><path d="M76.2539,125 C91.3509,125 106.448,125 121.545,125 " fill="none" id="Camera-&gt;IConnector" style="stroke: #A80036; stroke-width: 1.0; stroke-dasharray: 7.0,7.0;"/><polygon fill="#A80036" points="126.665,125,117.665,121,121.665,125,117.665,129,126.665,125" style="stroke: #A80036; stroke-width: 1.0;"/><!--MD5=[92ef045c5e484347479f8a3077dbaaa2]
link Camera to Commands--><path d="M48.2475,155.9135 C48.2475,155.9135 71.6624,252.564 80.4493,288.8334 " fill="none" id="Camera-Commands" style="stroke: #A80036; stroke-width: 1.0;"/><polygon fill="#A80036" points="83.6243,301.9388,85.3927,292.25,82.447,297.0794,77.6176,294.1337,83.6243,301.9388" style="stroke: #A80036; stroke-width: 1.0;"/><line style="stroke: #A80036; stroke-width: 1.0;" x1="82.447" x2="80.5634" y1="297.0794" y2="289.3043"/><polygon fill="#FFFFFF" points="45.4216,144.251,42.9471,151.0242,48.2475,155.9135,50.7221,149.1403,45.4216,144.251" style="stroke: #A80036; stroke-width: 1.0;"/><!--MD5=[3723082646a0418a9b92e4c60cd9848d]
link Commands to CommandChannel--><path d="M145.615,321 C145.615,321 168.442,321 179.204,321 " fill="none" id="Commands-CommandChannel" style="stroke: #A80036; stroke-width: 1.0;"/><polygon fill="#A80036" points="192.332,321,183.332,317,187.332,321,183.332,325,192.332,321" style="stroke: #A80036; stroke-width: 1.0;"/><line style="stroke: #A80036; stroke-width: 1.0;" x1="187.332" x2="179.332" y1="321" y2="320.9999"/><polygon fill="#FFFFFF" points="133.615,321,139.615,325,145.615,321,139.615,317,133.615,321" style="stroke: #A80036; stroke-width: 1.0;"/><!--MD5=[6806361872a7bba76cd2c8f9db826dea]
link IConnector to Channel--><path d="M158.234,125 C183.258,125 234.394,125 234.394,125 " fill="none" id="IConnector-Channel" style="stroke: #A80036; stroke-width: 1.0;"/><polygon fill="#FFFFFF" points="246.394,125,240.394,121,234.394,125,240.394,129,246.394,125" style="stroke: #A80036; stroke-width: 1.0;"/><polygon fill="#A80036" points="145.188,125,154.188,129,150.188,125,154.188,121,145.188,125" style="stroke: #A80036; stroke-width: 1.0;"/><line style="stroke: #A80036; stroke-width: 1.0;" x1="150.188" x2="158.1875" y1="125" y2="125"/><!--MD5=[4f2a2e8dfb6b3b558b3dca6e866031f1]
reverse link Channel to CommandChannel--><path d="M278.646,164.398 C273.924,206.038 266.588,270.7245 263.048,301.9388 " fill="none" id="Channel&lt;-CommandChannel" style="stroke: #A80036; stroke-width: 1.0;"/><polygon fill="none" points="271.721,163.335,280.93,144.251,285.632,164.912,271.721,163.335" style="stroke: #A80036; stroke-width: 1.0;"/><!--MD5=[c9f23381991f193bf246894ea0aa648c]
link DataChannel to Channel--><path d="M283,46.057 C283,57.116 283,71.705 283,85.268 " fill="none" id="DataChannel-&gt;Channel" style="stroke: #A80036; stroke-width: 1.0;"/><polygon fill="none" points="290,85.698,283,105.698,276,85.698,290,85.698" style="stroke: #A80036; stroke-width: 1.0;"/><!--MD5=[9861f4c5887bd9dbb2aabfcfda150400]
reverse link IConnector to Connector--><path d="M136,154.3 C136,170.292 136,189.813 136,203.777 " fill="none" id="IConnector&lt;-Connector" style="stroke: #A80036; stroke-width: 1.0;"/><polygon fill="none" points="129,154.185,136,134.185,143,154.185,129,154.185" style="stroke: #A80036; stroke-width: 1.0;"/><!--MD5=[7a390402f4b46e0b53ea4e28ede33646]
link ICamera to ImageProvider--><!--MD5=[4c639ef696e8bc43c1bef75f47a6cbd6]
link Connector to Socket--><path d="M191.16,223 C191.16,223 197.962,223 200.742,223 " fill="none" id="Connector-Socket" style="stroke: #A80036; stroke-width: 1.0;"/><polygon fill="#A80036" points="213.753,223,204.753,219,208.753,223,204.753,227,213.753,223" style="stroke: #A80036; stroke-width: 1.0;"/><line style="stroke: #A80036; stroke-width: 1.0;" x1="208.753" x2="200.7525" y1="223" y2="223"/><polygon fill="#FFFFFF" points="179.16,223,185.16,227,191.16,223,185.16,219,179.16,223" style="stroke: #A80036; stroke-width: 1.0;"/><!--MD5=[782e2aabb71b36d4f71ed9a22a0415e6]
link ImageProvider to DataChannel--><path d="M208.746,27 C208.746,27 215.408,27 218.233,27 " fill="none" id="ImageProvider-DataChannel" style="stroke: #A80036; stroke-width: 1.0;"/><polygon fill="#A80036" points="231.45,27,222.45,23,226.45,27,222.45,31,231.45,27" style="stroke: #A80036; stroke-width: 1.0;"/><line style="stroke: #A80036; stroke-width: 1.0;" x1="226.45" x2="218.45" y1="27" y2="27"/><polygon fill="#FFFFFF" points="196.746,27,202.746,31,208.746,27,202.746,23,196.746,27" style="stroke: #A80036; stroke-width: 1.0;"/><!--MD5=[596dfb01cc5fbe08218f46ca8c1436a1]
@startuml
ICamera <|- - [Camera] 
[Camera] .> IConnector
[Camera] o-> [Commands]
[Commands] o-> [CommandChannel] 
IConnector <-o [Channel]
[Channel] <|- - - [CommandChannel]  
[DataChannel] - -|> [Channel]
IConnector <|- - [Connector] 
ICamera -[hidden] [ImageProvider] 
[Connector] o-> Socket
[ImageProvider] o-> [DataChannel]
@enduml

PlantUML version 1.2020.04(Thu Mar 19 11:16:49 CET 2020)
(GPL source distribution)
Java Runtime: Java(TM) SE Runtime Environment
JVM: Java HotSpot(TM) 64-Bit Server VM
Java Version: 1.8.0_231-b11
Operating System: Windows 10
Default Encoding: Cp1252
Language: de
Country: DE
--></g></svg>