<?xml version="1.0" encoding="UTF-8" standalone="no"?><svg xmlns="http://www.w3.org/2000/svg" xmlns:xlink="http://www.w3.org/1999/xlink" contentScriptType="application/ecmascript" contentStyleType="text/css" height="326px" preserveAspectRatio="none" style="width:535px;height:326px;" version="1.1" viewBox="0 0 535 326" width="535px" zoomAndPan="magnify"><defs><filter height="300%" id="fx2lnvn44joxd" width="300%" x="-1" y="-1"><feGaussianBlur result="blurOut" stdDeviation="2.0"/><feColorMatrix in="blurOut" result="blurOut2" type="matrix" values="0 0 0 0 0 0 0 0 0 0 0 0 0 0 0 0 0 0 .4 0"/><feOffset dx="4.0" dy="4.0" in="blurOut2" result="blurOut3"/><feBlend in="SourceGraphic" in2="blurOut3" mode="normal"/></filter></defs><g><!--MD5=[7dbafa13093bfeec5c443f1c20288c44]
entity ICamera--><ellipse cx="186.5" cy="74" fill="#FEFECE" filter="url(#fx2lnvn44joxd)" rx="8" ry="8" style="stroke: #A80036; stroke-width: 2.0;"/><text fill="#000000" font-family="sans-serif" font-size="14" lengthAdjust="spacingAndGlyphs" textLength="53" x="160" y="105.5332">ICamera</text><!--MD5=[c8f729b8e352a0860913e8756c4779b6]
entity Camera--><rect fill="#FEFECE" filter="url(#fx2lnvn44joxd)" height="37.6094" style="stroke: #A80036; stroke-width: 1.5;" width="70" x="141.5" y="164"/><rect fill="#FEFECE" height="5" style="stroke: #A80036; stroke-width: 1.5;" width="10" x="136.5" y="169"/><rect fill="#FEFECE" height="5" style="stroke: #A80036; stroke-width: 1.5;" width="10" x="136.5" y="191.6094"/><text fill="#000000" font-family="sans-serif" font-size="14" lengthAdjust="spacingAndGlyphs" textLength="50" x="151.5" y="188.5332">Camera</text><!--MD5=[cf43aa1690dbdfe485164cd5a5ed55ad]
entity IConnector--><ellipse cx="255.5" cy="183" fill="#FEFECE" filter="url(#fx2lnvn44joxd)" rx="8" ry="8" style="stroke: #A80036; stroke-width: 2.0;"/><text fill="#000000" font-family="sans-serif" font-size="14" lengthAdjust="spacingAndGlyphs" textLength="69" x="221" y="214.5332">IConnector</text><!--MD5=[7cea0504e8cf45094c2de341d7a384ca]
entity Commands--><rect fill="#FEFECE" filter="url(#fx2lnvn44joxd)" height="37.6094" style="stroke: #A80036; stroke-width: 1.5;" width="91" x="86" y="262"/><rect fill="#FEFECE" height="5" style="stroke: #A80036; stroke-width: 1.5;" width="10" x="81" y="267"/><rect fill="#FEFECE" height="5" style="stroke: #A80036; stroke-width: 1.5;" width="10" x="81" y="289.6094"/><text fill="#000000" font-family="sans-serif" font-size="14" lengthAdjust="spacingAndGlyphs" textLength="71" x="96" y="286.5332">Commands</text><!--MD5=[6d13d96e3214069def66a922d7b4b439]
entity Channel--><rect fill="#FEFECE" filter="url(#fx2lnvn44joxd)" height="37.6094" style="stroke: #A80036; stroke-width: 1.5;" width="73" x="300" y="164"/><rect fill="#FEFECE" height="5" style="stroke: #A80036; stroke-width: 1.5;" width="10" x="295" y="169"/><rect fill="#FEFECE" height="5" style="stroke: #A80036; stroke-width: 1.5;" width="10" x="295" y="191.6094"/><text fill="#000000" font-family="sans-serif" font-size="14" lengthAdjust="spacingAndGlyphs" textLength="53" x="310" y="188.5332">Channel</text><!--MD5=[0f0b7ed167b21cd74acea32645837b15]
entity Connector--><rect fill="#FEFECE" filter="url(#fx2lnvn44joxd)" height="37.6094" style="stroke: #A80036; stroke-width: 1.5;" width="86" x="212.5" y="262"/><rect fill="#FEFECE" height="5" style="stroke: #A80036; stroke-width: 1.5;" width="10" x="207.5" y="267"/><rect fill="#FEFECE" height="5" style="stroke: #A80036; stroke-width: 1.5;" width="10" x="207.5" y="289.6094"/><text fill="#000000" font-family="sans-serif" font-size="14" lengthAdjust="spacingAndGlyphs" textLength="66" x="222.5" y="286.5332">Connector</text><!--MD5=[ebb7f8d2e3402ca85279694da6c794a0]
entity CommandChannel--><rect fill="#FEFECE" filter="url(#fx2lnvn44joxd)" height="37.6094" style="stroke: #A80036; stroke-width: 1.5;" width="137" x="387" y="262"/><rect fill="#FEFECE" height="5" style="stroke: #A80036; stroke-width: 1.5;" width="10" x="382" y="267"/><rect fill="#FEFECE" height="5" style="stroke: #A80036; stroke-width: 1.5;" width="10" x="382" y="289.6094"/><text fill="#000000" font-family="sans-serif" font-size="14" lengthAdjust="spacingAndGlyphs" textLength="117" x="397" y="286.5332">CommandChannel</text><!--MD5=[b320261c089a095cfc72cb2fdb9dd90a]
entity Socket--><ellipse cx="342.5" cy="281" fill="#FEFECE" filter="url(#fx2lnvn44joxd)" rx="8" ry="8" style="stroke: #A80036; stroke-width: 2.0;"/><text fill="#000000" font-family="sans-serif" font-size="14" lengthAdjust="spacingAndGlyphs" textLength="43" x="321" y="312.5332">Socket</text><!--MD5=[cc2405e7e296075ece1f50bfedd72247]
entity ImageProvider--><rect fill="#FEFECE" filter="url(#fx2lnvn44joxd)" height="37.6094" style="stroke: #A80036; stroke-width: 1.5;" width="111" x="6" y="55"/><rect fill="#FEFECE" height="5" style="stroke: #A80036; stroke-width: 1.5;" width="10" x="1" y="60"/><rect fill="#FEFECE" height="5" style="stroke: #A80036; stroke-width: 1.5;" width="10" x="1" y="82.6094"/><text fill="#000000" font-family="sans-serif" font-size="14" lengthAdjust="spacingAndGlyphs" textLength="91" x="16" y="79.5332">ImageProvider</text><!--MD5=[6cef3292fe542509f6b5ce20bdfa8104]
entity DataChannel--><rect fill="#FEFECE" filter="url(#fx2lnvn44joxd)" height="37.6094" style="stroke: #A80036; stroke-width: 1.5;" width="103" x="266" y="55"/><rect fill="#FEFECE" height="5" style="stroke: #A80036; stroke-width: 1.5;" width="10" x="261" y="60"/><rect fill="#FEFECE" height="5" style="stroke: #A80036; stroke-width: 1.5;" width="10" x="261" y="82.6094"/><text fill="#000000" font-family="sans-serif" font-size="14" lengthAdjust="spacingAndGlyphs" textLength="83" x="276" y="79.5332">DataChannel</text><!--MD5=[10484e9fe2213f1bdca7510a825474d4]
reverse link ICamera to Camera--><path d="M183.861,103.24 C182.074,122.357 179.766,147.058 178.214,163.657 " fill="none" id="ICamera&lt;-Camera" style="stroke: #A80036; stroke-width: 1.0;"/><polygon fill="none" points="176.918,102.304,185.748,83.042,190.857,103.607,176.918,102.304" style="stroke: #A80036; stroke-width: 1.0;"/><!--MD5=[5d3f0c056c348b83fec6857f6b39d7c6]
link Camera to IConnector--><path d="M211.68,183 C221.495,183 231.309,183 241.124,183 " fill="none" id="Camera-&gt;IConnector" style="stroke: #A80036; stroke-width: 1.0; stroke-dasharray: 7.0,7.0;"/><polygon fill="#A80036" points="246.257,183,237.257,179,241.257,183,237.257,187,246.257,183" style="stroke: #A80036; stroke-width: 1.0;"/><!--MD5=[92ef045c5e484347479f8a3077dbaaa2]
link Camera to Commands--><path d="M162.9429,212.9225 C162.9429,212.9225 150.986,238.4308 145.684,249.741 " fill="none" id="Camera-Commands" style="stroke: #A80036; stroke-width: 1.0;"/><polygon fill="#A80036" points="140.079,261.6977,147.5207,255.2462,142.2011,257.1704,140.277,251.8508,140.079,261.6977" style="stroke: #A80036; stroke-width: 1.0;"/><line style="stroke: #A80036; stroke-width: 1.0;" x1="142.2011" x2="145.597" y1="257.1704" y2="249.9267"/><polygon fill="#FFFFFF" points="168.036,202.0569,161.8676,205.792,162.9429,212.9225,169.1113,209.1874,168.036,202.0569" style="stroke: #A80036; stroke-width: 1.0;"/><!--MD5=[6806361872a7bba76cd2c8f9db826dea]
link IConnector to Channel--><path d="M277.827,183 C280.795,183 287.746,183 287.746,183 " fill="none" id="IConnector-Channel" style="stroke: #A80036; stroke-width: 1.0;"/><polygon fill="#FFFFFF" points="299.746,183,293.746,179,287.746,183,293.746,187,299.746,183" style="stroke: #A80036; stroke-width: 1.0;"/><polygon fill="#A80036" points="264.676,183,273.676,187,269.676,183,273.676,179,264.676,183" style="stroke: #A80036; stroke-width: 1.0;"/><line style="stroke: #A80036; stroke-width: 1.0;" x1="269.676" x2="277.676" y1="183" y2="183"/><!--MD5=[9861f4c5887bd9dbb2aabfcfda150400]
reverse link IConnector to Connector--><path d="M255.5,212.2997 C255.5,228.2915 255.5,247.8132 255.5,261.7773 " fill="none" id="IConnector&lt;-Connector" style="stroke: #A80036; stroke-width: 1.0;"/><polygon fill="none" points="248.5,212.1849,255.5,192.185,262.5,212.1849,248.5,212.1849" style="stroke: #A80036; stroke-width: 1.0;"/><!--MD5=[3723082646a0418a9b92e4c60cd9848d]
link Commands to CommandChannel--><path d="M165.466,254.9763 C165.466,254.9763 196.594,236.5521 213,232 C272.529,215.4826 291.726,218.453 352,232 C373.062,236.7337 394.876,246.267 413.017,255.6769 " fill="none" id="Commands-CommandChannel" style="stroke: #A80036; stroke-width: 1.0;"/><polygon fill="#A80036" points="424.647,261.9504,418.6255,254.1567,420.2466,259.5763,414.827,261.1974,424.647,261.9504" style="stroke: #A80036; stroke-width: 1.0;"/><line style="stroke: #A80036; stroke-width: 1.0;" x1="420.2466" x2="413.2055" y1="259.5763" y2="255.7787"/><polygon fill="#FFFFFF" points="155.56,261.7492,162.7706,261.6648,165.466,254.9763,158.2554,255.0608,155.56,261.7492" style="stroke: #A80036; stroke-width: 1.0;"/><!--MD5=[4f2a2e8dfb6b3b558b3dca6e866031f1]
reverse link Channel to CommandChannel--><path d="M374.614,214.7474 C393.79,230.2173 416.385,248.4451 432.813,261.6977 " fill="none" id="Channel&lt;-CommandChannel" style="stroke: #A80036; stroke-width: 1.0;"/><polygon fill="none" points="370.054,220.0627,358.883,202.0569,378.844,209.1663,370.054,220.0627" style="stroke: #A80036; stroke-width: 1.0;"/><!--MD5=[4c639ef696e8bc43c1bef75f47a6cbd6]
link Connector to Socket--><path d="M310.66,281 C310.66,281 317.462,281 320.242,281 " fill="none" id="Connector-Socket" style="stroke: #A80036; stroke-width: 1.0;"/><polygon fill="#A80036" points="333.253,281,324.253,277,328.253,281,324.253,285,333.253,281" style="stroke: #A80036; stroke-width: 1.0;"/><line style="stroke: #A80036; stroke-width: 1.0;" x1="328.253" x2="320.2525" y1="281" y2="280.9999"/><polygon fill="#FFFFFF" points="298.66,281,304.66,285,310.66,281,304.66,277,298.66,281" style="stroke: #A80036; stroke-width: 1.0;"/><!--MD5=[782e2aabb71b36d4f71ed9a22a0415e6]
link ImageProvider to DataChannel--><path d="M91.9972,47.5307 C91.9972,47.5307 131.051,20.555 153,14 C181.959,5.352 191.939,5.702 221,14 C243.984,20.563 266.827,34.353 284.515,47.06 " fill="none" id="ImageProvider-DataChannel" style="stroke: #A80036; stroke-width: 1.0;"/><polygon fill="#A80036" points="295.08,54.961,290.2679,46.3678,291.0758,51.9666,285.4769,52.7745,295.08,54.961" style="stroke: #A80036; stroke-width: 1.0;"/><line style="stroke: #A80036; stroke-width: 1.0;" x1="291.0758" x2="284.67" y1="51.9666" y2="47.175"/><polygon fill="#FFFFFF" points="82.5861,54.976,89.7734,54.3904,91.9972,47.5307,84.8099,48.1164,82.5861,54.976" style="stroke: #A80036; stroke-width: 1.0;"/><!--MD5=[c9f23381991f193bf246894ea0aa648c]
link DataChannel to Channel--><path d="M320.723,93.151 C323.193,107.063 326.689,126.746 329.762,144.052 " fill="none" id="DataChannel-&gt;Channel" style="stroke: #A80036; stroke-width: 1.0;"/><polygon fill="none" points="336.656,142.844,333.261,163.76,322.872,145.292,336.656,142.844" style="stroke: #A80036; stroke-width: 1.0;"/><!--MD5=[b0e238745bc83db8aed49a36831e8da0]
@startuml
ICamera <|- - [Camera]
[Camera] .> IConnector
[Camera] o-> [Commands]
IConnector <-o [Channel]
IConnector <|- - [Connector]
[Commands] o-> [CommandChannel]
[Channel] <|- - [CommandChannel]
[Connector] o-> Socket
[ImageProvider] o-> [DataChannel]
[DataChannel] - -|> [Channel]
@enduml

PlantUML version 1.2020.04(Thu Mar 19 11:16:49 CET 2020)
(GPL source distribution)
Java Runtime: Java(TM) SE Runtime Environment
JVM: Java HotSpot(TM) 64-Bit Server VM
Java Version: 1.8.0_231-b11
Operating System: Windows 10
Default Encoding: Cp1252
Language: de
Country: DE
--></g></svg>