<?xml version="1.0" encoding="UTF-8" standalone="no"?><svg xmlns="http://www.w3.org/2000/svg" xmlns:xlink="http://www.w3.org/1999/xlink" contentScriptType="application/ecmascript" contentStyleType="text/css" height="372px" preserveAspectRatio="none" style="width:546px;height:372px;" version="1.1" viewBox="0 0 546 372" width="546px" zoomAndPan="magnify"><defs><filter height="300%" id="fiovzmsprm0cf" width="300%" x="-1" y="-1"><feGaussianBlur result="blurOut" stdDeviation="2.0"/><feColorMatrix in="blurOut" result="blurOut2" type="matrix" values="0 0 0 0 0 0 0 0 0 0 0 0 0 0 0 0 0 0 .4 0"/><feOffset dx="4.0" dy="4.0" in="blurOut2" result="blurOut3"/><feBlend in="SourceGraphic" in2="blurOut3" mode="normal"/></filter></defs><g><!--MD5=[7dbafa13093bfeec5c443f1c20288c44]
entity ICamera--><ellipse cx="72.3253" cy="38" fill="#FEFECE" filter="url(#fiovzmsprm0cf)" rx="8" ry="8" style="stroke: #A80036; stroke-width: 2.0;"/><text fill="#000000" font-family="sans-serif" font-size="14" lengthAdjust="spacingAndGlyphs" textLength="53" x="45.8253" y="69.5332">ICamera</text><!--MD5=[c8f729b8e352a0860913e8756c4779b6]
entity Camera--><rect fill="#FEFECE" filter="url(#fiovzmsprm0cf)" height="37.6094" style="stroke: #A80036; stroke-width: 1.5;" width="70" x="37.3253" y="128"/><rect fill="#FEFECE" height="5" style="stroke: #A80036; stroke-width: 1.5;" width="10" x="32.3253" y="133"/><rect fill="#FEFECE" height="5" style="stroke: #A80036; stroke-width: 1.5;" width="10" x="32.3253" y="155.6094"/><text fill="#000000" font-family="sans-serif" font-size="14" lengthAdjust="spacingAndGlyphs" textLength="50" x="47.3253" y="152.5332">Camera</text><!--MD5=[7cea0504e8cf45094c2de341d7a384ca]
entity Commands--><rect fill="#FEFECE" filter="url(#fiovzmsprm0cf)" height="37.6094" style="stroke: #A80036; stroke-width: 1.5;" width="91" x="31.8253" y="324"/><rect fill="#FEFECE" height="5" style="stroke: #A80036; stroke-width: 1.5;" width="10" x="26.8253" y="329"/><rect fill="#FEFECE" height="5" style="stroke: #A80036; stroke-width: 1.5;" width="10" x="26.8253" y="351.6094"/><text fill="#000000" font-family="sans-serif" font-size="14" lengthAdjust="spacingAndGlyphs" textLength="71" x="41.8253" y="348.5332">Commands</text><!--MD5=[cf43aa1690dbdfe485164cd5a5ed55ad]
entity IConnector--><ellipse cx="358.325" cy="147" fill="#FEFECE" filter="url(#fiovzmsprm0cf)" rx="8" ry="8" style="stroke: #A80036; stroke-width: 2.0;"/><text fill="#000000" font-family="sans-serif" font-size="14" lengthAdjust="spacingAndGlyphs" textLength="69" x="323.825" y="178.5332">IConnector</text><!--MD5=[ebb7f8d2e3402ca85279694da6c794a0]
entity CommandChannel--><rect fill="#FEFECE" filter="url(#fiovzmsprm0cf)" height="37.6094" style="stroke: #A80036; stroke-width: 1.5;" width="137" x="209.825" y="324"/><rect fill="#FEFECE" height="5" style="stroke: #A80036; stroke-width: 1.5;" width="10" x="204.825" y="329"/><rect fill="#FEFECE" height="5" style="stroke: #A80036; stroke-width: 1.5;" width="10" x="204.825" y="351.6094"/><text fill="#000000" font-family="sans-serif" font-size="14" lengthAdjust="spacingAndGlyphs" textLength="117" x="219.825" y="348.5332">CommandChannel</text><!--MD5=[0f0b7ed167b21cd74acea32645837b15]
entity Connector--><rect fill="#FEFECE" filter="url(#fiovzmsprm0cf)" height="37.6094" style="stroke: #A80036; stroke-width: 1.5;" width="86" x="383.325" y="226"/><rect fill="#FEFECE" height="5" style="stroke: #A80036; stroke-width: 1.5;" width="10" x="378.325" y="231"/><rect fill="#FEFECE" height="5" style="stroke: #A80036; stroke-width: 1.5;" width="10" x="378.325" y="253.6094"/><text fill="#000000" font-family="sans-serif" font-size="14" lengthAdjust="spacingAndGlyphs" textLength="66" x="393.325" y="250.5332">Connector</text><!--MD5=[b320261c089a095cfc72cb2fdb9dd90a]
entity Socket--><ellipse cx="513.325" cy="245" fill="#FEFECE" filter="url(#fiovzmsprm0cf)" rx="8" ry="8" style="stroke: #A80036; stroke-width: 2.0;"/><text fill="#000000" font-family="sans-serif" font-size="14" lengthAdjust="spacingAndGlyphs" textLength="43" x="491.825" y="276.5332">Socket</text><!--MD5=[6d13d96e3214069def66a922d7b4b439]
entity Channel--><rect fill="#FEFECE" filter="url(#fiovzmsprm0cf)" height="37.6094" style="stroke: #A80036; stroke-width: 1.5;" width="73" x="240.825" y="128"/><rect fill="#FEFECE" height="5" style="stroke: #A80036; stroke-width: 1.5;" width="10" x="235.825" y="133"/><rect fill="#FEFECE" height="5" style="stroke: #A80036; stroke-width: 1.5;" width="10" x="235.825" y="155.6094"/><text fill="#000000" font-family="sans-serif" font-size="14" lengthAdjust="spacingAndGlyphs" textLength="53" x="250.825" y="152.5332">Channel</text><!--MD5=[6cef3292fe542509f6b5ce20bdfa8104]
entity DataChannel--><rect fill="#FEFECE" filter="url(#fiovzmsprm0cf)" height="37.6094" style="stroke: #A80036; stroke-width: 1.5;" width="103" x="173.825" y="226"/><rect fill="#FEFECE" height="5" style="stroke: #A80036; stroke-width: 1.5;" width="10" x="168.825" y="231"/><rect fill="#FEFECE" height="5" style="stroke: #A80036; stroke-width: 1.5;" width="10" x="168.825" y="253.6094"/><text fill="#000000" font-family="sans-serif" font-size="14" lengthAdjust="spacingAndGlyphs" textLength="83" x="183.825" y="250.5332">DataChannel</text><!--MD5=[cc2405e7e296075ece1f50bfedd72247]
entity ImageProvider--><rect fill="#FEFECE" filter="url(#fiovzmsprm0cf)" height="37.6094" style="stroke: #A80036; stroke-width: 1.5;" width="111" x="27.8253" y="226"/><rect fill="#FEFECE" height="5" style="stroke: #A80036; stroke-width: 1.5;" width="10" x="22.8253" y="231"/><rect fill="#FEFECE" height="5" style="stroke: #A80036; stroke-width: 1.5;" width="10" x="22.8253" y="253.6094"/><text fill="#000000" font-family="sans-serif" font-size="14" lengthAdjust="spacingAndGlyphs" textLength="91" x="37.8253" y="250.5332">ImageProvider</text><!--MD5=[10484e9fe2213f1bdca7510a825474d4]
reverse link ICamera to Camera--><path d="M72.3253,67.24 C72.3253,86.357 72.3253,111.058 72.3253,127.657 " fill="none" id="ICamera&lt;-Camera" style="stroke: #A80036; stroke-width: 1.0;"/><polygon fill="none" points="65.3254,67.042,72.3253,47.042,79.3254,67.042,65.3254,67.042" style="stroke: #A80036; stroke-width: 1.0;"/><!--MD5=[92ef045c5e484347479f8a3077dbaaa2]
link Camera to Commands--><path d="M43.5066,174.8738 C43.5066,174.8738 16.8664,207.259 10.3253,226 C4.7599,241.946 4.4574,248.163 10.3253,264 C17.4624,283.2621 31.7203,300.9673 45.2555,314.6234 " fill="none" id="Camera-Commands" style="stroke: #A80036; stroke-width: 1.0;"/><polygon fill="#A80036" points="54.8713,323.816,51.1299,314.7055,51.2571,320.3609,45.6017,320.4881,54.8713,323.816" style="stroke: #A80036; stroke-width: 1.0;"/><line style="stroke: #A80036; stroke-width: 1.0;" x1="51.2571" x2="45.4744" y1="320.3609" y2="314.8327"/><polygon fill="#FFFFFF" points="51.821,166.221,44.7795,167.7759,43.5066,174.8738,50.5481,173.3189,51.821,166.221" style="stroke: #A80036; stroke-width: 1.0;"/><!--MD5=[5d3f0c056c348b83fec6857f6b39d7c6]
link Camera to IConnector--><path d="M105.722,127.955 C153.63,103.309 243.801,67.002 313.825,98 C329.966,105.145 342.759,121.358 350.41,133.184 " fill="none" id="Camera-&gt;IConnector" style="stroke: #A80036; stroke-width: 1.0; stroke-dasharray: 7.0,7.0;"/><polygon fill="#A80036" points="353.181,137.63,351.8154,127.8763,350.5364,133.3866,345.026,132.1076,353.181,137.63" style="stroke: #A80036; stroke-width: 1.0;"/><!--MD5=[3723082646a0418a9b92e4c60cd9848d]
link Commands to CommandChannel--><path d="M134.864,343 C134.864,343 176.349,343 196.477,343 " fill="none" id="Commands-CommandChannel" style="stroke: #A80036; stroke-width: 1.0;"/><polygon fill="#A80036" points="209.704,343,200.704,339,204.704,343,200.704,347,209.704,343" style="stroke: #A80036; stroke-width: 1.0;"/><line style="stroke: #A80036; stroke-width: 1.0;" x1="204.704" x2="196.704" y1="343" y2="342.9999"/><polygon fill="#FFFFFF" points="122.864,343,128.864,347,134.864,343,128.864,339,122.864,343" style="stroke: #A80036; stroke-width: 1.0;"/><!--MD5=[9861f4c5887bd9dbb2aabfcfda150400]
reverse link IConnector to Connector--><path d="M375.834,172.718 C387.573,189.291 402.774,210.752 413.418,225.777 " fill="none" id="IConnector&lt;-Connector" style="stroke: #A80036; stroke-width: 1.0;"/><polygon fill="none" points="369.971,176.552,364.123,156.185,381.395,168.459,369.971,176.552" style="stroke: #A80036; stroke-width: 1.0;"/><!--MD5=[4c639ef696e8bc43c1bef75f47a6cbd6]
link Connector to Socket--><path d="M481.485,245 C481.485,245 488.288,245 491.068,245 " fill="none" id="Connector-Socket" style="stroke: #A80036; stroke-width: 1.0;"/><polygon fill="#A80036" points="504.078,245,495.078,241,499.078,245,495.078,249,504.078,245" style="stroke: #A80036; stroke-width: 1.0;"/><line style="stroke: #A80036; stroke-width: 1.0;" x1="499.078" x2="491.078" y1="245" y2="245"/><polygon fill="#FFFFFF" points="469.485,245,475.485,249,481.485,245,475.485,241,469.485,245" style="stroke: #A80036; stroke-width: 1.0;"/><!--MD5=[2d3eaa632ff811b039b3689794e48054]
link Channel to IConnector--><path d="M326.028,147 C326.028,147 332.825,147 335.669,147 " fill="none" id="Channel-IConnector" style="stroke: #A80036; stroke-width: 1.0;"/><polygon fill="#A80036" points="348.981,147,339.981,143,343.981,147,339.981,151,348.981,147" style="stroke: #A80036; stroke-width: 1.0;"/><line style="stroke: #A80036; stroke-width: 1.0;" x1="343.981" x2="335.981" y1="147" y2="147"/><polygon fill="#FFFFFF" points="314.028,147,320.028,151,326.028,147,320.028,143,314.028,147" style="stroke: #A80036; stroke-width: 1.0;"/><!--MD5=[4f2a2e8dfb6b3b558b3dca6e866031f1]
reverse link Channel to CommandChannel--><path d="M287.211,185.527 C290.111,198.277 292.89,212.67 294.325,226 C298.07,260.766 289.56,301.1793 283.572,323.9576 " fill="none" id="Channel&lt;-CommandChannel" style="stroke: #A80036; stroke-width: 1.0;"/><polygon fill="none" points="280.412,187.194,282.428,166.1,294.006,183.847,280.412,187.194" style="stroke: #A80036; stroke-width: 1.0;"/><!--MD5=[0c64de92ef63daa71b4472bf1f66074b]
reverse link Channel to DataChannel--><path d="M257.828,183.996 C250.13,198.207 241.62,213.918 235.239,225.698 " fill="none" id="Channel&lt;-DataChannel" style="stroke: #A80036; stroke-width: 1.0;"/><polygon fill="none" points="251.864,180.309,267.544,166.057,264.174,186.977,251.864,180.309" style="stroke: #A80036; stroke-width: 1.0;"/><!--MD5=[782e2aabb71b36d4f71ed9a22a0415e6]
link ImageProvider to DataChannel--><path d="M151.071,245 C151.071,245 157.734,245 160.558,245 " fill="none" id="ImageProvider-DataChannel" style="stroke: #A80036; stroke-width: 1.0;"/><polygon fill="#A80036" points="173.775,245,164.775,241,168.775,245,164.775,249,173.775,245" style="stroke: #A80036; stroke-width: 1.0;"/><line style="stroke: #A80036; stroke-width: 1.0;" x1="168.775" x2="160.775" y1="245" y2="245"/><polygon fill="#FFFFFF" points="139.071,245,145.071,249,151.071,245,145.071,241,139.071,245" style="stroke: #A80036; stroke-width: 1.0;"/><!--MD5=[4e875d4fca1599a37cf93d2a98775bcb]
@startuml
ICamera <|- - [Camera]
[Camera] o- - -> [Commands]
[Camera] .> IConnector
[Commands] o-> [CommandChannel]
IConnector <|- - [Connector]
[Connector] o-> Socket
[Channel] o-> IConnector
[Channel] <|- - [CommandChannel]
[Channel] <|- - [DataChannel]
[ImageProvider] o-> [DataChannel]
@enduml

PlantUML version 1.2020.04(Thu Mar 19 11:16:49 CET 2020)
(GPL source distribution)
Java Runtime: Java(TM) SE Runtime Environment
JVM: Java HotSpot(TM) 64-Bit Server VM
Java Version: 1.8.0_231-b11
Operating System: Windows 10
Default Encoding: Cp1252
Language: de
Country: DE
--></g></svg>