<?xml version="1.0" encoding="UTF-8" standalone="no"?><svg xmlns="http://www.w3.org/2000/svg" xmlns:xlink="http://www.w3.org/1999/xlink" contentScriptType="application/ecmascript" contentStyleType="text/css" height="128px" preserveAspectRatio="none" style="width:1085px;height:128px;" version="1.1" viewBox="0 0 1085 128" width="1085px" zoomAndPan="magnify"><defs><filter height="300%" id="f1o8u2urvvkwzr" width="300%" x="-1" y="-1"><feGaussianBlur result="blurOut" stdDeviation="2.0"/><feColorMatrix in="blurOut" result="blurOut2" type="matrix" values="0 0 0 0 0 0 0 0 0 0 0 0 0 0 0 0 0 0 .4 0"/><feOffset dx="4.0" dy="4.0" in="blurOut2" result="blurOut3"/><feBlend in="SourceGraphic" in2="blurOut3" mode="normal"/></filter></defs><g><!--MD5=[c8f729b8e352a0860913e8756c4779b6]
entity Camera--><rect fill="#FEFECE" filter="url(#f1o8u2urvvkwzr)" height="37.6094" style="stroke: #A80036; stroke-width: 1.5;" width="70" x="6" y="64"/><rect fill="#FEFECE" height="5" style="stroke: #A80036; stroke-width: 1.5;" width="10" x="1" y="69"/><rect fill="#FEFECE" height="5" style="stroke: #A80036; stroke-width: 1.5;" width="10" x="1" y="91.6094"/><text fill="#000000" font-family="sans-serif" font-size="14" lengthAdjust="spacingAndGlyphs" textLength="50" x="16" y="88.5332">Camera</text><!--MD5=[7dbafa13093bfeec5c443f1c20288c44]
entity ICamera--><ellipse cx="419" cy="83" fill="#FEFECE" filter="url(#f1o8u2urvvkwzr)" rx="8" ry="8" style="stroke: #A80036; stroke-width: 2.0;"/><text fill="#000000" font-family="sans-serif" font-size="14" lengthAdjust="spacingAndGlyphs" textLength="53" x="392.5" y="114.5332">ICamera</text><!--MD5=[7cea0504e8cf45094c2de341d7a384ca]
entity Commands--><rect fill="#FEFECE" filter="url(#f1o8u2urvvkwzr)" height="37.6094" style="stroke: #A80036; stroke-width: 1.5;" width="91" x="111.5" y="64"/><rect fill="#FEFECE" height="5" style="stroke: #A80036; stroke-width: 1.5;" width="10" x="106.5" y="69"/><rect fill="#FEFECE" height="5" style="stroke: #A80036; stroke-width: 1.5;" width="10" x="106.5" y="91.6094"/><text fill="#000000" font-family="sans-serif" font-size="14" lengthAdjust="spacingAndGlyphs" textLength="71" x="121.5" y="88.5332">Commands</text><!--MD5=[cf43aa1690dbdfe485164cd5a5ed55ad]
entity IConnector--><ellipse cx="1039" cy="83" fill="#FEFECE" filter="url(#f1o8u2urvvkwzr)" rx="8" ry="8" style="stroke: #A80036; stroke-width: 2.0;"/><text fill="#000000" font-family="sans-serif" font-size="14" lengthAdjust="spacingAndGlyphs" textLength="69" x="1004.5" y="114.5332">IConnector</text><!--MD5=[ebb7f8d2e3402ca85279694da6c794a0]
entity CommandChannel--><rect fill="#FEFECE" filter="url(#f1o8u2urvvkwzr)" height="37.6094" style="stroke: #A80036; stroke-width: 1.5;" width="137" x="237.5" y="64"/><rect fill="#FEFECE" height="5" style="stroke: #A80036; stroke-width: 1.5;" width="10" x="232.5" y="69"/><rect fill="#FEFECE" height="5" style="stroke: #A80036; stroke-width: 1.5;" width="10" x="232.5" y="91.6094"/><text fill="#000000" font-family="sans-serif" font-size="14" lengthAdjust="spacingAndGlyphs" textLength="117" x="247.5" y="88.5332">CommandChannel</text><!--MD5=[6d13d96e3214069def66a922d7b4b439]
entity Channel--><rect fill="#FEFECE" filter="url(#f1o8u2urvvkwzr)" height="37.6094" style="stroke: #A80036; stroke-width: 1.5;" width="73" x="921.5" y="64"/><rect fill="#FEFECE" height="5" style="stroke: #A80036; stroke-width: 1.5;" width="10" x="916.5" y="69"/><rect fill="#FEFECE" height="5" style="stroke: #A80036; stroke-width: 1.5;" width="10" x="916.5" y="91.6094"/><text fill="#000000" font-family="sans-serif" font-size="14" lengthAdjust="spacingAndGlyphs" textLength="53" x="931.5" y="88.5332">Channel</text><!--MD5=[6cef3292fe542509f6b5ce20bdfa8104]
entity DataChannel--><rect fill="#FEFECE" filter="url(#f1o8u2urvvkwzr)" height="37.6094" style="stroke: #A80036; stroke-width: 1.5;" width="103" x="783.5" y="64"/><rect fill="#FEFECE" height="5" style="stroke: #A80036; stroke-width: 1.5;" width="10" x="778.5" y="69"/><rect fill="#FEFECE" height="5" style="stroke: #A80036; stroke-width: 1.5;" width="10" x="778.5" y="91.6094"/><text fill="#000000" font-family="sans-serif" font-size="14" lengthAdjust="spacingAndGlyphs" textLength="83" x="793.5" y="88.5332">DataChannel</text><!--MD5=[0f0b7ed167b21cd74acea32645837b15]
entity Connector--><rect fill="#FEFECE" filter="url(#f1o8u2urvvkwzr)" height="37.6094" style="stroke: #A80036; stroke-width: 1.5;" width="86" x="463" y="64"/><rect fill="#FEFECE" height="5" style="stroke: #A80036; stroke-width: 1.5;" width="10" x="458" y="69"/><rect fill="#FEFECE" height="5" style="stroke: #A80036; stroke-width: 1.5;" width="10" x="458" y="91.6094"/><text fill="#000000" font-family="sans-serif" font-size="14" lengthAdjust="spacingAndGlyphs" textLength="66" x="473" y="88.5332">Connector</text><!--MD5=[b320261c089a095cfc72cb2fdb9dd90a]
entity Socket--><ellipse cx="593" cy="83" fill="#FEFECE" filter="url(#f1o8u2urvvkwzr)" rx="8" ry="8" style="stroke: #A80036; stroke-width: 2.0;"/><text fill="#000000" font-family="sans-serif" font-size="14" lengthAdjust="spacingAndGlyphs" textLength="43" x="571.5" y="114.5332">Socket</text><!--MD5=[cc2405e7e296075ece1f50bfedd72247]
entity ImageProvider--><rect fill="#FEFECE" filter="url(#f1o8u2urvvkwzr)" height="37.6094" style="stroke: #A80036; stroke-width: 1.5;" width="111" x="637.5" y="64"/><rect fill="#FEFECE" height="5" style="stroke: #A80036; stroke-width: 1.5;" width="10" x="632.5" y="69"/><rect fill="#FEFECE" height="5" style="stroke: #A80036; stroke-width: 1.5;" width="10" x="632.5" y="91.6094"/><text fill="#000000" font-family="sans-serif" font-size="14" lengthAdjust="spacingAndGlyphs" textLength="91" x="647.5" y="88.5332">ImageProvider</text><!--MD5=[93a4782ebf5169a2f5cb23af9f207e49]
link Camera to ICamera--><path d="M61.3833,63.7894 C74.568,52.7276 92.725,39.8838 111.5,34 C167.27,16.5224 321.058,10.3425 374.5,34 C385.499,38.8689 394.943,47.948 402.265,56.9805 " fill="none" id="Camera-&gt;ICamera" style="stroke: #A80036; stroke-width: 1.0;"/><polygon fill="none" points="408.173,53.2162,413.856,73.6297,396.683,61.2152,408.173,53.2162" style="stroke: #A80036; stroke-width: 1.0;"/><!--MD5=[92ef045c5e484347479f8a3077dbaaa2]
link Camera to Commands--><path d="M88.3438,83 C88.3438,83 95.1503,83 97.9964,83 " fill="none" id="Camera-Commands" style="stroke: #A80036; stroke-width: 1.0;"/><polygon fill="#A80036" points="111.316,83,102.316,79,106.316,83,102.316,87,111.316,83" style="stroke: #A80036; stroke-width: 1.0;"/><line style="stroke: #A80036; stroke-width: 1.0;" x1="106.316" x2="98.3158" y1="83" y2="82.9999"/><polygon fill="#FFFFFF" points="76.3438,83,82.3438,87,88.3438,83,82.3438,79,76.3438,83" style="stroke: #A80036; stroke-width: 1.0;"/><!--MD5=[5d3f0c056c348b83fec6857f6b39d7c6]
link Camera to IConnector--><path d="M61.3833,63.7894 C74.568,52.7276 92.725,39.8838 111.5,34 C205.121,4.6602 904.786,-5.714 994.5,34 C1010.64,41.1453 1023.43,57.3579 1031.08,69.1837 " fill="none" id="Camera-&gt;IConnector" style="stroke: #A80036; stroke-width: 1.0; stroke-dasharray: 7.0,7.0;"/><polygon fill="#A80036" points="1033.86,73.6297,1032.4939,63.876,1031.2152,69.3865,1025.7048,68.1077,1033.86,73.6297" style="stroke: #A80036; stroke-width: 1.0;"/><!--MD5=[3723082646a0418a9b92e4c60cd9848d]
link Commands to CommandChannel--><path d="M214.689,83 C214.689,83 221.353,83 224.177,83 " fill="none" id="Commands-CommandChannel" style="stroke: #A80036; stroke-width: 1.0;"/><polygon fill="#A80036" points="237.395,83,228.395,79,232.395,83,228.395,87,237.395,83" style="stroke: #A80036; stroke-width: 1.0;"/><line style="stroke: #A80036; stroke-width: 1.0;" x1="232.395" x2="224.395" y1="83" y2="82.9999"/><polygon fill="#FFFFFF" points="202.689,83,208.689,87,214.689,83,208.689,79,202.689,83" style="stroke: #A80036; stroke-width: 1.0;"/><!--MD5=[2d3eaa632ff811b039b3689794e48054]
link Channel to IConnector--><path d="M1006.703,83 C1006.703,83 1013.5,83 1016.34,83 " fill="none" id="Channel-IConnector" style="stroke: #A80036; stroke-width: 1.0;"/><polygon fill="#A80036" points="1029.66,83,1020.66,79,1024.66,83,1020.66,87,1029.66,83" style="stroke: #A80036; stroke-width: 1.0;"/><line style="stroke: #A80036; stroke-width: 1.0;" x1="1024.66" x2="1016.66" y1="83" y2="82.9999"/><polygon fill="#FFFFFF" points="994.703,83,1000.703,87,1006.703,83,1000.703,79,994.703,83" style="stroke: #A80036; stroke-width: 1.0;"/><!--MD5=[6313fcd7689f3f28e59fd173b4f8c50a]
link CommandChannel to Channel--><path d="M337.175,63.9487 C357.298,52.7952 384.488,39.7958 410.5,34 C513.746,10.9957 785.459,2.7 886.5,34 C898.655,37.7655 910.582,44.3898 921.105,51.5735 " fill="none" id="CommandChannel-&gt;Channel" style="stroke: #A80036; stroke-width: 1.0;"/><polygon fill="none" points="925.536,46.1481,937.281,63.7852,917.101,57.3216,925.536,46.1481" style="stroke: #A80036; stroke-width: 1.0;"/><!--MD5=[c9f23381991f193bf246894ea0aa648c]
link DataChannel to Channel--><path d="M886.891,83 C891.645,83 896.398,83 901.152,83 " fill="none" id="DataChannel-&gt;Channel" style="stroke: #A80036; stroke-width: 1.0;"/><polygon fill="none" points="901.334,75.9999,921.334,83,901.334,89.9999,901.334,75.9999" style="stroke: #A80036; stroke-width: 1.0;"/><!--MD5=[eaab1abd1a4341b424270f73306c4f10]
link Connector to IConnector--><path d="M529.062,63.7589 C543.88,52.6855 564.114,39.8404 584.5,34 C672.088,8.9073 911.187,-2.88 994.5,34 C1005.499,38.8689 1014.94,47.948 1022.26,56.9805 " fill="none" id="Connector-&gt;IConnector" style="stroke: #A80036; stroke-width: 1.0;"/><polygon fill="none" points="1028.17,53.2162,1033.86,73.6297,1016.68,61.2152,1028.17,53.2162" style="stroke: #A80036; stroke-width: 1.0;"/><!--MD5=[4c639ef696e8bc43c1bef75f47a6cbd6]
link Connector to Socket--><path d="M561.16,83 C561.16,83 567.962,83 570.742,83 " fill="none" id="Connector-Socket" style="stroke: #A80036; stroke-width: 1.0;"/><polygon fill="#A80036" points="583.753,83,574.753,79,578.753,83,574.753,87,583.753,83" style="stroke: #A80036; stroke-width: 1.0;"/><line style="stroke: #A80036; stroke-width: 1.0;" x1="578.753" x2="570.7525" y1="83" y2="82.9999"/><polygon fill="#FFFFFF" points="549.16,83,555.16,87,561.16,83,555.16,79,549.16,83" style="stroke: #A80036; stroke-width: 1.0;"/><!--MD5=[782e2aabb71b36d4f71ed9a22a0415e6]
link ImageProvider to DataChannel--><path d="M760.746,83 C760.746,83 767.408,83 770.233,83 " fill="none" id="ImageProvider-DataChannel" style="stroke: #A80036; stroke-width: 1.0;"/><polygon fill="#A80036" points="783.45,83,774.45,79,778.45,83,774.45,87,783.45,83" style="stroke: #A80036; stroke-width: 1.0;"/><line style="stroke: #A80036; stroke-width: 1.0;" x1="778.45" x2="770.45" y1="83" y2="82.9999"/><polygon fill="#FFFFFF" points="748.746,83,754.746,87,760.746,83,754.746,79,748.746,83" style="stroke: #A80036; stroke-width: 1.0;"/><!--MD5=[3231d9715010d694d2870ea9490b430e]
@startuml
[Camera] -|> ICamera 
[Camera] o-> [Commands]
[Camera] .> IConnector
[Commands] o-> [CommandChannel] 
[Channel] o-> IConnector
[CommandChannel] -|> [Channel]  
[DataChannel] -|> [Channel]
[Connector] -|> IConnector 
[Connector] o-> Socket
[ImageProvider] o-> [DataChannel]
@enduml

PlantUML version 1.2020.04(Thu Mar 19 11:16:49 CET 2020)
(GPL source distribution)
Java Runtime: Java(TM) SE Runtime Environment
JVM: Java HotSpot(TM) 64-Bit Server VM
Java Version: 1.8.0_231-b11
Operating System: Windows 10
Default Encoding: Cp1252
Language: de
Country: DE
--></g></svg>