<?xml version="1.0" encoding="UTF-8" standalone="no"?><svg xmlns="http://www.w3.org/2000/svg" xmlns:xlink="http://www.w3.org/1999/xlink" contentScriptType="application/ecmascript" contentStyleType="text/css" height="376px" preserveAspectRatio="none" style="width:678px;height:376px;background:#FFFFFF;" version="1.1" viewBox="0 0 678 376" width="678px" zoomAndPan="magnify"><defs><filter height="300%" id="fqgbtiqhc8rlt" width="300%" x="-1" y="-1"><feGaussianBlur result="blurOut" stdDeviation="2.0"/><feColorMatrix in="blurOut" result="blurOut2" type="matrix" values="0 0 0 0 0 0 0 0 0 0 0 0 0 0 0 0 0 0 .4 0"/><feOffset dx="4.0" dy="4.0" in="blurOut2" result="blurOut3"/><feBlend in="SourceGraphic" in2="blurOut3" mode="normal"/></filter></defs><g><!--MD5=[7dbafa13093bfeec5c443f1c20288c44]
entity ICamera--><ellipse cx="289" cy="14" fill="#FEFECE" filter="url(#fqgbtiqhc8rlt)" rx="8" ry="8" style="stroke:#A80036;stroke-width:1.5;"/><text fill="#000000" font-family="sans-serif" font-size="14" lengthAdjust="spacing" textLength="59" x="259.5" y="43.9951">ICamera</text><!--MD5=[c8f729b8e352a0860913e8756c4779b6]
entity Camera--><rect fill="#FEFECE" filter="url(#fqgbtiqhc8rlt)" height="46.2969" style="stroke:#A80036;stroke-width:1.5;" width="95" x="241.5" y="103"/><rect fill="#FEFECE" height="10" style="stroke:#A80036;stroke-width:1.5;" width="15" x="316.5" y="108"/><rect fill="#FEFECE" height="2" style="stroke:#A80036;stroke-width:1.5;" width="4" x="314.5" y="110"/><rect fill="#FEFECE" height="2" style="stroke:#A80036;stroke-width:1.5;" width="4" x="314.5" y="114"/><text fill="#000000" font-family="sans-serif" font-size="14" lengthAdjust="spacing" textLength="55" x="256.5" y="135.9951">Camera</text><!--MD5=[7cea0504e8cf45094c2de341d7a384ca]
entity Commands--><rect fill="#FEFECE" filter="url(#fqgbtiqhc8rlt)" height="46.2969" style="stroke:#A80036;stroke-width:1.5;" width="120" x="7" y="209"/><rect fill="#FEFECE" height="10" style="stroke:#A80036;stroke-width:1.5;" width="15" x="107" y="214"/><rect fill="#FEFECE" height="2" style="stroke:#A80036;stroke-width:1.5;" width="4" x="105" y="216"/><rect fill="#FEFECE" height="2" style="stroke:#A80036;stroke-width:1.5;" width="4" x="105" y="220"/><text fill="#000000" font-family="sans-serif" font-size="14" lengthAdjust="spacing" textLength="80" x="22" y="241.9951">Commands</text><!--MD5=[cf43aa1690dbdfe485164cd5a5ed55ad]
entity IConnector--><ellipse cx="511" cy="232" fill="#FEFECE" filter="url(#fqgbtiqhc8rlt)" rx="8" ry="8" style="stroke:#A80036;stroke-width:1.5;"/><text fill="#000000" font-family="sans-serif" font-size="14" lengthAdjust="spacing" textLength="80" x="471" y="261.9951">IConnector</text><!--MD5=[ebb7f8d2e3402ca85279694da6c794a0]
entity CommandChannel--><rect fill="#FEFECE" filter="url(#fqgbtiqhc8rlt)" height="46.2969" style="stroke:#A80036;stroke-width:1.5;" width="171" x="162.5" y="209"/><rect fill="#FEFECE" height="10" style="stroke:#A80036;stroke-width:1.5;" width="15" x="313.5" y="214"/><rect fill="#FEFECE" height="2" style="stroke:#A80036;stroke-width:1.5;" width="4" x="311.5" y="216"/><rect fill="#FEFECE" height="2" style="stroke:#A80036;stroke-width:1.5;" width="4" x="311.5" y="220"/><text fill="#000000" font-family="sans-serif" font-size="14" lengthAdjust="spacing" textLength="131" x="177.5" y="241.9951">CommandChannel</text><!--MD5=[6d13d96e3214069def66a922d7b4b439]
entity Channel--><rect fill="#FEFECE" filter="url(#fqgbtiqhc8rlt)" height="46.2969" style="stroke:#A80036;stroke-width:1.5;" width="98" x="369" y="209"/><rect fill="#FEFECE" height="10" style="stroke:#A80036;stroke-width:1.5;" width="15" x="447" y="214"/><rect fill="#FEFECE" height="2" style="stroke:#A80036;stroke-width:1.5;" width="4" x="445" y="216"/><rect fill="#FEFECE" height="2" style="stroke:#A80036;stroke-width:1.5;" width="4" x="445" y="220"/><text fill="#000000" font-family="sans-serif" font-size="14" lengthAdjust="spacing" textLength="58" x="384" y="241.9951">Channel</text><!--MD5=[0f0b7ed167b21cd74acea32645837b15]
entity Connector--><rect fill="#FEFECE" filter="url(#fqgbtiqhc8rlt)" height="46.2969" style="stroke:#A80036;stroke-width:1.5;" width="116" x="486" y="315"/><rect fill="#FEFECE" height="10" style="stroke:#A80036;stroke-width:1.5;" width="15" x="582" y="320"/><rect fill="#FEFECE" height="2" style="stroke:#A80036;stroke-width:1.5;" width="4" x="580" y="322"/><rect fill="#FEFECE" height="2" style="stroke:#A80036;stroke-width:1.5;" width="4" x="580" y="326"/><text fill="#000000" font-family="sans-serif" font-size="14" lengthAdjust="spacing" textLength="76" x="501" y="347.9951">Connector</text><!--MD5=[6cef3292fe542509f6b5ce20bdfa8104]
entity DataChannel--><rect fill="#FEFECE" filter="url(#fqgbtiqhc8rlt)" height="46.2969" style="stroke:#A80036;stroke-width:1.5;" width="132" x="319" y="315"/><rect fill="#FEFECE" height="10" style="stroke:#A80036;stroke-width:1.5;" width="15" x="431" y="320"/><rect fill="#FEFECE" height="2" style="stroke:#A80036;stroke-width:1.5;" width="4" x="429" y="322"/><rect fill="#FEFECE" height="2" style="stroke:#A80036;stroke-width:1.5;" width="4" x="429" y="326"/><text fill="#000000" font-family="sans-serif" font-size="14" lengthAdjust="spacing" textLength="92" x="334" y="347.9951">DataChannel</text><!--MD5=[b320261c089a095cfc72cb2fdb9dd90a]
entity Socket--><ellipse cx="646" cy="338" fill="#FEFECE" filter="url(#fqgbtiqhc8rlt)" rx="8" ry="8" style="stroke:#A80036;stroke-width:1.5;"/><text fill="#000000" font-family="sans-serif" font-size="14" lengthAdjust="spacing" textLength="51" x="620.5" y="367.9951">Socket</text><!--MD5=[cc2405e7e296075ece1f50bfedd72247]
entity ImageProvider--><rect fill="#FEFECE" filter="url(#fqgbtiqhc8rlt)" height="46.2969" style="stroke:#A80036;stroke-width:1.5;" width="144" x="140" y="315"/><rect fill="#FEFECE" height="10" style="stroke:#A80036;stroke-width:1.5;" width="15" x="264" y="320"/><rect fill="#FEFECE" height="2" style="stroke:#A80036;stroke-width:1.5;" width="4" x="262" y="322"/><rect fill="#FEFECE" height="2" style="stroke:#A80036;stroke-width:1.5;" width="4" x="262" y="326"/><text fill="#000000" font-family="sans-serif" font-size="14" lengthAdjust="spacing" textLength="104" x="155" y="347.9951">ImageProvider</text><!--MD5=[10484e9fe2213f1bdca7510a825474d4]
reverse link ICamera to Camera--><path d="M289,43.52 C289,61.971 289,85.644 289,102.713 " fill="none" id="ICamera-backto-Camera" style="stroke:#A80036;stroke-width:1.0;"/><polygon fill="none" points="282,43.268,289,23.268,296,43.268,282,43.268" style="stroke:#A80036;stroke-width:1.0;"/><!--MD5=[92ef045c5e484347479f8a3077dbaaa2]
link Camera to Commands--><path d="M231.0535,154.1471 C231.0535,154.1471 158.115,188.315 125.942,203.387 " fill="none" id="Camera-Commands" style="stroke:#A80036;stroke-width:1.0;"/><polygon fill="#A80036" points="114.013,208.976,123.8599,208.7804,118.5408,206.855,120.4662,201.5359,114.013,208.976" style="stroke:#A80036;stroke-width:1.0;"/><line style="stroke:#A80036;stroke-width:1.0;" x1="118.5408" x2="125.785" y1="206.855" y2="203.461"/><polygon fill="#FFFFFF" points="241.92,149.056,234.7897,147.9794,231.0535,154.1471,238.1838,155.2237,241.92,149.056" style="stroke:#A80036;stroke-width:1.0;"/><!--MD5=[5d3f0c056c348b83fec6857f6b39d7c6]
link Camera to IConnector--><path d="M336.895,142.394 C377.839,156.619 437.495,179.923 485,209 C489.842,211.963 494.708,215.798 498.9,219.434 " fill="none" id="Camera-to-IConnector" style="stroke:#A80036;stroke-width:1.0;stroke-dasharray:7.0,7.0;"/><polygon fill="#A80036" points="502.842,222.963,498.8066,213.9788,499.1175,219.6271,493.4692,219.938,502.842,222.963" style="stroke:#A80036;stroke-width:1.0;"/><!--MD5=[3723082646a0418a9b92e4c60cd9848d]
link Commands to CommandChannel--><path d="M139.098,232 C139.098,232 145.891,232 148.736,232 " fill="none" id="Commands-CommandChannel" style="stroke:#A80036;stroke-width:1.0;"/><polygon fill="#A80036" points="162.046,232,153.046,228,157.046,232,153.046,236,162.046,232" style="stroke:#A80036;stroke-width:1.0;"/><line style="stroke:#A80036;stroke-width:1.0;" x1="157.046" x2="149.046" y1="232" y2="232"/><polygon fill="#FFFFFF" points="127.098,232,133.098,236,139.098,232,133.098,228,127.098,232" style="stroke:#A80036;stroke-width:1.0;"/><!--MD5=[2d3eaa632ff811b039b3689794e48054]
link Channel to IConnector--><path d="M479.043,232 C479.043,232 485.695,232 488.518,232 " fill="none" id="Channel-IConnector" style="stroke:#A80036;stroke-width:1.0;"/><polygon fill="#A80036" points="501.728,232,492.728,228,496.728,232,492.728,236,501.728,232" style="stroke:#A80036;stroke-width:1.0;"/><line style="stroke:#A80036;stroke-width:1.0;" x1="496.728" x2="488.728" y1="232" y2="232"/><polygon fill="#FFFFFF" points="467.043,232,473.043,236,479.043,232,473.043,228,467.043,232" style="stroke:#A80036;stroke-width:1.0;"/><!--MD5=[9861f4c5887bd9dbb2aabfcfda150400]
reverse link IConnector to Connector--><path d="M519.655,260.276 C525.053,277.2878 531.911,298.9003 536.971,314.8488 " fill="none" id="IConnector-backto-Connector" style="stroke:#A80036;stroke-width:1.0;"/><polygon fill="none" points="512.966,262.3412,513.589,241.161,526.311,258.107,512.966,262.3412" style="stroke:#A80036;stroke-width:1.0;"/><!--MD5=[6313fcd7689f3f28e59fd173b4f8c50a]
link CommandChannel to Channel--><path d="M333.664,232 C338.713,232 343.762,232 348.81,232 " fill="none" id="CommandChannel-to-Channel" style="stroke:#A80036;stroke-width:1.0;"/><polygon fill="none" points="348.914,225,368.914,232,348.914,239,348.914,225" style="stroke:#A80036;stroke-width:1.0;"/><!--MD5=[0c64de92ef63daa71b4472bf1f66074b]
reverse link Channel to DataChannel--><path d="M404.93,274.1905 C400.511,288.116 395.749,303.1237 391.988,314.9761 " fill="none" id="Channel-backto-DataChannel" style="stroke:#A80036;stroke-width:1.0;"/><polygon fill="none" points="398.28,272.0019,411.002,255.056,411.625,276.2362,398.28,272.0019" style="stroke:#A80036;stroke-width:1.0;"/><!--MD5=[4c639ef696e8bc43c1bef75f47a6cbd6]
link Connector to Socket--><path d="M614.172,338 C614.172,338 620.969,338 623.748,338 " fill="none" id="Connector-Socket" style="stroke:#A80036;stroke-width:1.0;"/><polygon fill="#A80036" points="636.755,338,627.755,334,631.755,338,627.755,342,636.755,338" style="stroke:#A80036;stroke-width:1.0;"/><line style="stroke:#A80036;stroke-width:1.0;" x1="631.755" x2="623.755" y1="338" y2="337.9999"/><polygon fill="#FFFFFF" points="602.172,338,608.172,342,614.172,338,608.172,334,602.172,338" style="stroke:#A80036;stroke-width:1.0;"/><!--MD5=[782e2aabb71b36d4f71ed9a22a0415e6]
link ImageProvider to DataChannel--><path d="M296.309,338 C296.309,338 303.122,338 305.903,338 " fill="none" id="ImageProvider-DataChannel" style="stroke:#A80036;stroke-width:1.0;"/><polygon fill="#A80036" points="318.921,338,309.921,334,313.921,338,309.921,342,318.921,338" style="stroke:#A80036;stroke-width:1.0;"/><line style="stroke:#A80036;stroke-width:1.0;" x1="313.921" x2="305.921" y1="338" y2="337.9999"/><polygon fill="#FFFFFF" points="284.309,338,290.309,342,296.309,338,290.309,334,284.309,338" style="stroke:#A80036;stroke-width:1.0;"/><!--MD5=[5b123a622c6dee7651b4ec95906dc546]
@startuml
ICamera <|- - [Camera]
[Camera] o- -> [Commands]
[Camera] .> IConnector
[Commands] o-> [CommandChannel]
[Channel] o-> IConnector
IConnector <|- - [Connector]
[CommandChannel] -|> [Channel]
[Channel] <|- - [DataChannel]
[Connector] o-> Socket
[ImageProvider] o-> [DataChannel]
@enduml

PlantUML version 1.2021.14(Fri Nov 12 16:46:50 UTC 2021)
(GPL source distribution)
Java Runtime: Java(TM) SE Runtime Environment
JVM: Java HotSpot(TM) 64-Bit Server VM
Default Encoding: UTF-8
Language: en
Country: US
--></g></svg>